<?xml version="1.0" encoding="UTF-8"?><svg id="Ebene_1" xmlns="http://www.w3.org/2000/svg" xmlns:xlink="http://www.w3.org/1999/xlink" viewBox="0 0 216.32 216.85"><defs><style>.cls-1{clip-path:url(#clippath);}.cls-2{fill:url(#Unbenannter_Verlauf_7-2);}.cls-2,.cls-3,.cls-4{stroke-width:0px;}.cls-5,.cls-4{fill:#fff;}.cls-3{fill:url(#Unbenannter_Verlauf_7);}</style><linearGradient id="Unbenannter_Verlauf_7" x1="9.54" y1="150.12" x2="228.01" y2="57.22" gradientUnits="userSpaceOnUse"><stop offset="0" stop-color="#f7aa36"/><stop offset=".08" stop-color="#f7aa36"/><stop offset=".49" stop-color="#ef8013"/><stop offset=".94" stop-color="#e8570d"/><stop offset="1" stop-color="#e8570d"/></linearGradient><linearGradient id="Unbenannter_Verlauf_7-2" x1="-6.66" y1="157.25" x2="247.7" y2="49.09" xlink:href="#Unbenannter_Verlauf_7"/><clipPath id="clippath"><path class="cls-4" d="M264.2,216.85c0-41.2,33.52-74.72,74.72-74.72s74.71,33.52,74.71,74.72-33.52,74.72-74.71,74.72-74.72-33.52-74.72-74.72M252.67,216.85c0,47.63,38.61,86.25,86.25,86.25s86.25-38.62,86.25-86.25-38.61-86.25-86.25-86.25-86.25,38.62-86.25,86.25"/></clipPath></defs><circle class="cls-3" cx="108.16" cy="108.18" r="104.18"/><rect class="cls-2" x="2.89" y=".69" width="210.55" height="215.46" rx="56.87" ry="56.87"/><path class="cls-5" d="M264.2,216.85c0-41.2,33.52-74.72,74.72-74.72s74.71,33.52,74.71,74.72-33.52,74.72-74.71,74.72-74.72-33.52-74.72-74.72M252.67,216.85c0,47.63,38.61,86.25,86.25,86.25s86.25-38.62,86.25-86.25-38.61-86.25-86.25-86.25-86.25,38.62-86.25,86.25"/><g class="cls-1"><rect class="cls-4" x="229.15" y="107.08" width="219.53" height="219.53" transform="translate(-52.37 123.14) rotate(-19.14)"/></g><path class="cls-4" d="M85.83,123.4c-2.17,0-4.24-.36-6.22-1.07-1.98-.71-3.73-1.74-5.25-3.08-1.57-1.34-2.78-2.88-3.63-4.63-.55-1.12-.92-2.28-1.11-3.48-.18-1.07.62-2.05,1.7-2.05h0c.87,0,1.57.65,1.71,1.5.22,1.37.76,2.67,1.61,3.89,1.15,1.66,2.72,2.98,4.7,3.97,1.98.99,4.15,1.49,6.5,1.49,3.41,0,6.29-.92,8.64-2.77,2.17-1.66,3.43-3.73,3.8-6.22.05-.23.07-.55.07-.97,0-2.17-.81-4.17-2.42-6.01-2.21-2.58-5.74-4.54-10.58-5.88h0c-5.35-1.43-9.26-3.53-11.75-6.29-2.49-2.77-3.73-5.71-3.73-8.85,0-.65.02-1.13.07-1.45.18-1.66.71-3.21,1.59-4.67.87-1.45,2.03-2.73,3.46-3.84,1.47-1.15,3.13-2.03,4.98-2.63,1.84-.6,3.8-.9,5.88-.9s4.23.36,6.19,1.07c1.96.72,3.7,1.74,5.22,3.08,1.57,1.34,2.78,2.89,3.63,4.67.55,1.14.92,2.31,1.11,3.51.17,1.07-.62,2.05-1.7,2.05h0c-.87,0-1.57-.65-1.71-1.51-.22-1.41-.76-2.72-1.61-3.95-1.15-1.66-2.72-2.98-4.7-3.98-1.98-.99-4.13-1.49-6.43-1.49-3.46,0-6.36.92-8.71,2.77-2.21,1.71-3.46,3.78-3.73,6.22-.05.28-.07.67-.07,1.18,0,2.17.78,4.1,2.35,5.81,2.3,2.67,5.83,4.63,10.58,5.88,5.35,1.43,9.26,3.53,11.75,6.29,2.49,2.77,3.73,5.72,3.73,8.85,0,.65-.02,1.13-.07,1.45-.18,1.66-.72,3.21-1.59,4.67-.88,1.45-2.03,2.73-3.46,3.84-3,2.35-6.59,3.53-10.78,3.53Z"/><path class="cls-4" d="M110.09,120.78h0c-.95,0-1.73-.77-1.73-1.73v-46.94c0-.95.77-1.73,1.73-1.73h0c.95,0,1.73.77,1.73,1.73v46.94c0,.95-.77,1.73-1.73,1.73Z"/><path class="cls-4" d="M182.11,126.88c.63.61.6,1.62-.05,2.21-3.76,3.41-7.98,5.59-12.65,6.55-1.57.32-3.2.48-4.91.48-3.36,0-6.57-.65-9.61-1.94-2.81-1.15-5.39-2.78-7.74-4.87-2.35-2.1-4.4-4.57-6.15-7.43-1.8-3.04-3.18-6.36-4.15-9.96-.79-3.04-1.26-6.01-1.41-8.92-.04-.81-.69-1.45-1.5-1.45h-10.94c-.83,0-1.5.67-1.5,1.5v16.07c0,.83-.67,1.5-1.5,1.5h-.45c-.83,0-1.5-.67-1.5-1.5v-47.25c0-.83.67-1.5,1.5-1.5h17.03c1.75,0,3.5.18,5.17.71,2.45.77,4.57,2.06,6.37,3.85,1.47,1.48,2.6,3.17,3.39,5.08.78,1.91,1.18,3.91,1.18,5.98s-.39,4.06-1.18,5.95c-.78,1.89-1.91,3.57-3.39,5.05-2.32,2.28-5,3.71-8.03,4.3-.71.14-1.23.79-1.19,1.52.13,2.74.56,5.48,1.27,8.21.92,3.41,2.19,6.43,3.8,9.06,1.52,2.53,3.32,4.74,5.39,6.6,2.07,1.87,4.36,3.31,6.84,4.32,2.72,1.11,5.48,1.66,8.3,1.66s5.81-.6,8.57-1.8c2.37-1.03,4.59-2.48,6.65-4.35.58-.53,1.47-.54,2.03.01l.36.35ZM121.5,96.6c0,.83.67,1.5,1.5,1.5h14.05c1.61,0,3.16-.31,4.63-.93,1.47-.62,2.79-1.51,3.94-2.66s2.04-2.47,2.66-3.94c.62-1.47.93-3,.93-4.56s-.31-3.16-.93-4.63c-.62-1.47-1.51-2.79-2.66-3.94-1.15-1.15-2.47-2.04-3.94-2.66-1.48-.62-3.02-.93-4.63-.93h-14.05c-.83,0-1.5.67-1.5,1.5v21.26Z"/><path class="cls-4" d="M160.35,120.64h0c-.95,0-1.73-.77-1.73-1.73v-46.8c0-.95.77-1.73,1.73-1.73h0c.95,0,1.73.77,1.73,1.73v46.8c0,.95-.77,1.73-1.73,1.73Z"/><path class="cls-4" d="M183.99,123.4c-2.17,0-4.24-.36-6.22-1.07-1.98-.71-3.73-1.74-5.25-3.08-1.57-1.34-2.78-2.88-3.63-4.63-.55-1.12-.92-2.28-1.11-3.48-.18-1.07.62-2.05,1.7-2.05h0c.87,0,1.57.65,1.71,1.5.22,1.37.76,2.67,1.61,3.89,1.15,1.66,2.72,2.98,4.7,3.97,1.98.99,4.15,1.49,6.5,1.49,3.41,0,6.29-.92,8.64-2.77,2.17-1.66,3.43-3.73,3.8-6.22.05-.23.07-.55.07-.97,0-2.17-.81-4.17-2.42-6.01-2.21-2.58-5.74-4.54-10.58-5.88h0c-5.35-1.43-9.26-3.53-11.75-6.29-2.49-2.77-3.73-5.71-3.73-8.85,0-.65.02-1.13.07-1.45.18-1.66.71-3.21,1.59-4.67.87-1.45,2.03-2.73,3.46-3.84,1.47-1.15,3.13-2.03,4.98-2.63,1.84-.6,3.8-.9,5.88-.9s4.23.36,6.19,1.07c1.96.72,3.7,1.74,5.22,3.08,1.57,1.34,2.78,2.89,3.63,4.67.55,1.14.92,2.31,1.11,3.51.17,1.07-.62,2.05-1.7,2.05h0c-.87,0-1.57-.65-1.71-1.51-.22-1.41-.76-2.72-1.61-3.95-1.15-1.66-2.72-2.98-4.7-3.98-1.98-.99-4.13-1.49-6.43-1.49-3.46,0-6.36.92-8.71,2.77-2.21,1.71-3.46,3.78-3.73,6.22-.05.28-.07.67-.07,1.18,0,2.17.78,4.1,2.35,5.81,2.3,2.67,5.83,4.63,10.58,5.88,5.35,1.43,9.26,3.53,11.75,6.29,2.49,2.77,3.73,5.72,3.73,8.85,0,.65-.02,1.13-.07,1.45-.18,1.66-.72,3.21-1.59,4.67-.88,1.45-2.03,2.73-3.46,3.84-3,2.35-6.59,3.53-10.78,3.53Z"/><circle class="cls-4" cx="41.28" cy="95.51" r="9.04"/><path class="cls-4" d="M41.28,73.74c12,0,21.77,9.77,21.77,21.77s-9.77,21.77-21.77,21.77-21.77-9.77-21.77-21.77,9.77-21.77,21.77-21.77M41.28,70.38c-13.88,0-25.13,11.25-25.13,25.13s11.25,25.13,25.13,25.13,25.13-11.25,25.13-25.13-11.25-25.13-25.13-25.13h0Z"/><path class="cls-4" d="M37.03,147.37c-.99,0-1.87-.22-2.65-.67-.78-.44-1.39-1.07-1.83-1.89-.45-.81-.67-1.77-.67-2.86s.22-2.05.67-2.87c.44-.81,1.05-1.44,1.83-1.89.78-.44,1.67-.67,2.67-.67s1.89.22,2.66.67c.77.45,1.38,1.07,1.81,1.89.44.81.66,1.77.66,2.87s-.22,2.05-.67,2.86c-.44.81-1.05,1.44-1.82,1.89s-1.66.67-2.66.67ZM37.03,145.26c.53,0,1.01-.12,1.46-.35s.8-.6,1.07-1.09c.27-.49.41-1.11.41-1.86s-.14-1.39-.41-1.88c-.27-.49-.63-.85-1.06-1.08-.44-.24-.92-.35-1.45-.35s-1.01.12-1.46.35c-.45.24-.8.6-1.07,1.08-.27.49-.41,1.11-.41,1.88,0,1.14.29,1.98.86,2.51s1.26.8,2.05.8Z"/><path class="cls-4" d="M45.74,146.16h0c0-.53.43-.96.96-.96h1.54c.53,0,.96-.43.96-.96v-9.52c0-.46-.22-.69-.67-.69h-1.54c-.53,0-.96-.43-.96-.96h0c0-.53.43-.96.96-.96h1.94c.8,0,1.42.21,1.84.64s.64,1.04.64,1.84v9.65c0,.53.43.96.96.96h1.56c.53,0,.96.43.96.96h0c0,.53-.43.96-.96.96h-7.23c-.53,0-.96-.43-.96-.96Z"/><path class="cls-4" d="M63.2,147.37c-1.25,0-2.2-.39-2.84-1.16-.65-.77-.97-1.89-.97-3.36v-5.05c0-.56.46-1.02,1.02-1.02h.17c.56,0,1.02.46,1.02,1.02v4.78c0,.85.18,1.51.55,1.99.37.48.93.72,1.7.72s1.4-.26,1.92-.77.77-1.26.77-2.23v-4.48c0-.56.46-1.02,1.02-1.02h.18c.56,0,1.02.46,1.02,1.02v8.3c0,.56-.46,1.02-1.02,1.02h0c-.51,0-.95-.38-1.01-.89l-.08-.65h-.1c-.28.5-.71.92-1.29,1.27s-1.26.52-2.04.52Z"/><path class="cls-4" d="M78.78,147.12c-1.01,0-1.82-.25-2.42-.74-.6-.49-.9-1.37-.9-2.64v-4.98c0-.06-.05-.11-.11-.11h-1.56c-.52,0-.93-.42-.93-.93h0c0-.52.42-.94.93-.94h.52c.66,0,1.23-.47,1.35-1.12l.15-.82c.08-.44.47-.76.92-.76h0c.52,0,.93.42.93.93v1.67c0,.06.05.11.11.11h3.04c.52,0,.93.42.93.93h0c0,.52-.42.94-.93.94h-3.04c-.06,0-.11.05-.11.11v4.93c0,.54.12.92.36,1.14s.66.32,1.26.32h1.44c.54,0,.98.44.98.98h0c0,.54-.44.98-.98.98h-1.96Z"/><path class="cls-4" d="M86.85,146.16h0c0-.53.43-.96.96-.96h1.33c.53,0,.96-.43.96-.96v-4.85c0-.46-.22-.69-.67-.69h-1.33c-.53,0-.96-.43-.96-.96h0c0-.53.43-.96.96-.96h1.73c.86,0,1.49.2,1.89.59.4.4.59,1.02.59,1.89v4.98c0,.53.43.96.96.96h1.33c.53,0,.96.43.96.96h0c0,.53-.43.96-.96.96h-6.79c-.53,0-.96-.43-.96-.96ZM90.99,135.2c-.49,0-.89-.16-1.22-.47-.33-.31-.49-.7-.49-1.16s.16-.84.49-1.15c.33-.3.73-.46,1.22-.46s.91.15,1.24.46c.33.31.49.69.49,1.15s-.16.84-.49,1.16c-.33.31-.74.47-1.24.47Z"/><path class="cls-4" d="M113.66,146.1v-8.3c0-.56.46-1.02,1.02-1.02h0c.51,0,.95.38,1.01.89l.08.65h.1c.28-.5.71-.92,1.29-1.27s1.26-.52,2.02-.52c1.26,0,2.22.38,2.85,1.15.64.76.96,1.89.96,3.37v5.05c0,.56-.46,1.02-1.02,1.02h-.18c-.56,0-1.02-.46-1.02-1.02v-4.78c0-.86-.18-1.53-.54-2-.36-.47-.93-.71-1.71-.71s-1.4.26-1.91.77c-.51.51-.76,1.26-.76,2.23v4.48c0,.56-.46,1.02-1.02,1.02h-.18c-.56,0-1.02-.46-1.02-1.02Z"/><path class="cls-4" d="M131.91,147.37c-1.36,0-2.45-.32-3.25-.96-.36-.29-.65-.61-.87-.99-.41-.68.06-1.56.86-1.56h.2c.39,0,.72.23.9.57.13.24.31.44.55.62.41.31.95.46,1.64.46s1.16-.14,1.51-.41.53-.59.53-.95c0-.53-.21-.89-.64-1.08-.42-.19-1.05-.34-1.87-.44-.71-.08-1.35-.25-1.93-.49-.58-.24-1.03-.58-1.37-1-.33-.42-.5-.95-.5-1.59,0-.9.35-1.63,1.06-2.19.71-.56,1.69-.83,2.96-.83s2.24.29,2.94.85c.28.23.51.5.7.79.42.67-.08,1.54-.87,1.54h-.05c-.38,0-.7-.24-.9-.56-.11-.16-.26-.31-.44-.43-.38-.24-.84-.36-1.4-.36s-1.02.11-1.35.32c-.33.22-.5.5-.5.84,0,.75.81,1.21,2.42,1.38.76.08,1.44.23,2.04.43s1.07.51,1.42.94c.35.42.52,1.02.52,1.78.01.62-.16,1.19-.53,1.69-.37.5-.88.9-1.52,1.19-.65.29-1.4.44-2.26.44Z"/><path class="cls-4" d="M28.02,141.08c-.34-.55-.81-1-1.4-1.35-.59-.35-1.27-.66-2.03-.91-1.22-.4-2.11-.8-2.65-1.18-.41-.29-.67-.67-.77-1.13-.17-.79.25-1.65.98-2,.37-.18.8-.26,1.28-.25.53,0,.97.11,1.33.32.36.22.64.49.83.81.05.08.07.15.1.23,0,0,.26.78.76.78h.74c.61,0,1.04-.59.88-1.18-.2-.74-.59-1.36-1.17-1.85-.86-.73-2-1.09-3.42-1.09s-2.6.35-3.44,1.06c-.83.71-1.25,1.64-1.25,2.79,0,1,.28,1.84.85,2.53.57.69,1.46,1.23,2.67,1.61.9.29,1.64.57,2.21.84s.99.58,1.26.92c.27.34.41.77.41,1.28,0,.61-.23,1.11-.69,1.49-.46.38-1.1.57-1.92.57-.89,0-1.58-.26-2.07-.78-.3-.31-.51-.66-.63-1.05-.15-.48-.55-.83-1.05-.83h-.18c-.71,0-1.24.68-1.05,1.37.11.4.28.77.49,1.11.44.69,1.04,1.23,1.81,1.6s1.67.56,2.7.56,1.91-.19,2.64-.56c.73-.38,1.29-.88,1.68-1.51.39-.63.58-1.34.58-2.12,0-.85-.17-1.54-.51-2.09Z"/><path class="cls-4" d="M109.23,139.08c-.44-.81-1.04-1.44-1.81-1.89-.77-.44-1.66-.67-2.66-.67s-1.89.22-2.67.67c-.78.45-1.39,1.07-1.83,1.89-.45.81-.67,1.77-.67,2.87s.22,2.05.67,2.86c.44.81,1.05,1.44,1.83,1.89.78.44,1.66.67,2.65.67s1.89-.22,2.66-.67,1.38-1.07,1.82-1.89c.44-.81.67-1.77.67-2.86s-.22-2.05-.66-2.87ZM106.65,144.79c.05.24-.13.47-.38.47h-3.03c-.25,0-.43-.23-.38-.47l.9-2.89c-.63-.39-1.02-1.13-.88-1.95.13-.76.73-1.38,1.49-1.53,1.22-.24,2.28.69,2.28,1.86,0,.69-.36,1.29-.91,1.62l.9,2.89Z"/></svg>