<?xml version="1.0" encoding="UTF-8"?>
<svg xmlns="http://www.w3.org/2000/svg" width="1474.76" height="648.01" xmlns:xlink="http://www.w3.org/1999/xlink" viewBox="0 0 1474.76 648.01">
  <defs>
    <style>
      .cls-1 {
        fill: #dba585;
      }

      .cls-2 {
        fill: none;
      }

      .cls-3 {
        fill: #454971;
      }

      .cls-4 {
        fill: #63a308;
      }

      .cls-4, .cls-5, .cls-6, .cls-7, .cls-8, .cls-9, .cls-10, .cls-11, .cls-12, .cls-13, .cls-14, .cls-15, .cls-16, .cls-17, .cls-18 {
        opacity: .5;
      }

      .cls-19 {
        fill: #b9afaa;
      }

      .cls-5 {
        fill: url(#Unbenannter_Verlauf_8-3);
      }

      .cls-6 {
        fill: url(#Unbenannter_Verlauf_8-5);
      }

      .cls-7 {
        fill: url(#Unbenannter_Verlauf_8-7);
      }

      .cls-8 {
        fill: url(#Unbenannter_Verlauf_8-4);
      }

      .cls-9 {
        fill: url(#Unbenannter_Verlauf_8-9);
      }

      .cls-10 {
        fill: url(#Unbenannter_Verlauf_8-2);
      }

      .cls-11 {
        fill: url(#Unbenannter_Verlauf_8-8);
      }

      .cls-20 {
        fill: url(#linear-gradient-3);
      }

      .cls-21 {
        fill: url(#linear-gradient-2);
      }

      .cls-22 {
        fill: #f4f6ff;
      }

      .cls-23 {
        fill: url(#linear-gradient);
      }

      .cls-24 {
        fill: #b2a8a3;
      }

      .cls-25 {
        fill: #dedfe6;
      }

      .cls-26 {
        isolation: isolate;
      }

      .cls-27 {
        fill: #3e4148;
      }

      .cls-28 {
        fill: #f4f4f4;
        mix-blend-mode: hard-light;
      }

      .cls-29 {
        fill: #5d5955;
      }

      .cls-30 {
        fill: #363957;
      }

      .cls-31 {
        fill: #6d6865;
      }

      .cls-32, .cls-13 {
        fill: #008083;
      }

      .cls-33 {
        fill: #fff;
      }

      .cls-34 {
        fill: #249ea0;
      }

      .cls-35 {
        fill: #c6bbb5;
      }

      .cls-36 {
        fill: url(#Unbenannter_Verlauf_8);
        opacity: .1;
      }

      .cls-37 {
        fill: #005f60;
      }

      .cls-38 {
        fill: url(#Unbenannter_Verlauf_8-6);
      }

      .cls-39 {
        fill: #faab36;
      }

      .cls-40 {
        fill: #f78104;
      }

      .cls-41 {
        fill: #8c8581;
      }

      .cls-14 {
        fill: url(#Unbenannter_Verlauf_8-11);
      }

      .cls-15 {
        fill: url(#Unbenannter_Verlauf_8-12);
      }

      .cls-16 {
        fill: url(#Unbenannter_Verlauf_8-10);
      }

      .cls-17 {
        fill: url(#Unbenannter_Verlauf_8-13);
      }

      .cls-18 {
        fill: url(#Unbenannter_Verlauf_8-14);
      }

      .cls-42 {
        fill: #8c8480;
      }

      .cls-43 {
        fill: #dcd0c8;
      }

      .cls-44 {
        fill: #948c87;
      }

      .cls-45 {
        clip-path: url(#clippath);
      }

      .cls-46 {
        fill: #a98e75;
      }

      .cls-47 {
        fill: #2e3048;
      }
    </style>
    <clipPath id="clippath">
      <rect class="cls-2" y="16.13" width="1200" height="630"/>
    </clipPath>
    <linearGradient id="Unbenannter_Verlauf_8" data-name="Unbenannter Verlauf 8" x1="1057.5" y1="-126.37" x2="142.5" y2="788.63" gradientUnits="userSpaceOnUse">
      <stop offset="0" stop-color="#249ea0"/>
      <stop offset=".08" stop-color="#249ea0"/>
      <stop offset=".49" stop-color="#008083"/>
      <stop offset=".94" stop-color="#005f60"/>
      <stop offset="1" stop-color="#005f60"/>
    </linearGradient>
    <linearGradient id="Unbenannter_Verlauf_8-2" data-name="Unbenannter Verlauf 8" x1="-3462.45" y1="-1747.17" x2="-4078.97" y2="-1391.22" gradientTransform="translate(-2704.2 -1201.87) rotate(-180)" xlink:href="#Unbenannter_Verlauf_8"/>
    <linearGradient id="Unbenannter_Verlauf_8-3" data-name="Unbenannter Verlauf 8" x1="-3606.48" y1="-1679.28" x2="-4010.24" y2="-1275.52" gradientTransform="translate(-2704.2 -1201.87) rotate(-180)" xlink:href="#Unbenannter_Verlauf_8"/>
    <linearGradient id="linear-gradient" x1="1220.42" y1="354.63" x2="915.45" y2="354.63" gradientUnits="userSpaceOnUse">
      <stop offset="0" stop-color="#eebe63"/>
      <stop offset="1" stop-color="#dc3b57"/>
    </linearGradient>
    <linearGradient id="linear-gradient-2" x1="1220.42" y1="371.3" x2="915.45" y2="371.3" xlink:href="#linear-gradient"/>
    <linearGradient id="linear-gradient-3" x1="1220.42" y1="387.98" x2="915.45" y2="387.98" xlink:href="#linear-gradient"/>
    <linearGradient id="Unbenannter_Verlauf_8-4" data-name="Unbenannter Verlauf 8" x1="1128.62" y1="355.02" x2="1146.1" y2="355.02" xlink:href="#Unbenannter_Verlauf_8"/>
    <linearGradient id="Unbenannter_Verlauf_8-5" data-name="Unbenannter Verlauf 8" x1="1102.63" y1="363.42" x2="1120.11" y2="363.42" xlink:href="#Unbenannter_Verlauf_8"/>
    <linearGradient id="Unbenannter_Verlauf_8-6" data-name="Unbenannter Verlauf 8" x1="1153.83" y1="341.15" x2="1171.31" y2="341.15" xlink:href="#Unbenannter_Verlauf_8"/>
    <linearGradient id="Unbenannter_Verlauf_8-7" data-name="Unbenannter Verlauf 8" x1="1003.19" y1="285.93" x2="1168.49" y2="285.93" xlink:href="#Unbenannter_Verlauf_8"/>
    <linearGradient id="Unbenannter_Verlauf_8-8" data-name="Unbenannter Verlauf 8" x1="1106.44" y1="187.94" x2="1167.5" y2="187.94" xlink:href="#Unbenannter_Verlauf_8"/>
    <linearGradient id="Unbenannter_Verlauf_8-9" data-name="Unbenannter Verlauf 8" x1="1106.44" y1="207.76" x2="1167.5" y2="207.76" xlink:href="#Unbenannter_Verlauf_8"/>
    <linearGradient id="Unbenannter_Verlauf_8-10" data-name="Unbenannter Verlauf 8" x1="993.71" y1="175.59" x2="1054.99" y2="175.59" xlink:href="#Unbenannter_Verlauf_8"/>
    <linearGradient id="Unbenannter_Verlauf_8-11" data-name="Unbenannter Verlauf 8" x1="1000.65" y1="226.97" x2="1049.09" y2="226.97" xlink:href="#Unbenannter_Verlauf_8"/>
    <linearGradient id="Unbenannter_Verlauf_8-12" data-name="Unbenannter Verlauf 8" x1="818.93" y1="478.09" x2="939.8" y2="478.09" xlink:href="#Unbenannter_Verlauf_8"/>
    <linearGradient id="Unbenannter_Verlauf_8-13" data-name="Unbenannter Verlauf 8" x1="829.26" y1="495.67" x2="919.99" y2="495.67" xlink:href="#Unbenannter_Verlauf_8"/>
    <linearGradient id="Unbenannter_Verlauf_8-14" data-name="Unbenannter Verlauf 8" x1="796.5" y1="422.66" x2="902.16" y2="422.66" xlink:href="#Unbenannter_Verlauf_8"/>
  </defs>
  <g class="cls-26">
    <g id="Ebene_2" data-name="Ebene 2">
      <g id="_Layer_" data-name="&amp;lt;Layer&amp;gt;">
        <g class="cls-45">
          <rect class="cls-33" y="16.13" width="1200" height="630"/>
          <rect class="cls-36" y="16.13" width="1200" height="630"/>
          <path class="cls-10" d="M785.97,446.07c72.56,13.69,107.15,67.11,149.7,103.07,50.09,42.34,110.97,18.88,163.01,11.41,93.54-13.42,125.33,85.12,228.26,72.06,98.5-12.5,136.95-135.89,75.71-206.54-61.24-70.66-59.23-91.99-45.15-141.97,14.08-49.98,38.87-143.54-59.73-151.99-84.75-7.26-133.73-28.44-171.03-65.24-37.3-36.8-174.69-138.14-238.78,15.8-30.63,73.56-49.09,99.44-117.9,118.31-68.81,18.87-116.89,70.81-119.05,129.62-2.04,55.7,38.06,97.2,134.97,115.48Z"/>
          <path class="cls-5" d="M1108.47,80.06c-56.48,41.21-119.32,46.61-185.61,33.47-66.29-13.15-121.73-15.54-165.12,46.62-43.39,62.15-27.19,179.13,90.39,207.97,112.09,27.49,130.79,117.65,150.66,181.68,24.1,77.69,96.42,109.96,171.15,94.42,74.73-15.54,95.21-70.52,124.14-155.38,28.93-84.86,63.03-95.35,113.29-120.72,61.55-31.08,113.81-125,1.2-178.09-147.04-69.32-135.89-229.78-300.11-109.96Z"/>
          <rect class="cls-33" x="983.81" y="384.4" width="213.62" height="7.14"/>
          <rect class="cls-23" x="983.81" y="351.06" width="158.65" height="7.14"/>
          <rect class="cls-21" x="983.81" y="367.73" width="171.42" height="7.15"/>
          <rect class="cls-20" x="983.81" y="384.4" width="111.23" height="7.14"/>
          <g>
            <path class="cls-28" d="M889.84,123.53h284.57c20.28,0,36.74,16.46,36.74,36.74v254.38c0,20.27-16.46,36.73-36.73,36.73h-284.57c-20.27,0-36.73-16.46-36.73-36.73v-254.39c0-20.27,16.46-36.73,36.73-36.73Z"/>
            <g>
              <path class="cls-34" d="M985.8,222.84c7.25-20.28.7-42.15-14.79-55.33-3.69-3.15-7.89-5.79-12.54-7.81-1.02-.44-2.07-.86-3.14-1.24-10.72-3.83-21.88-3.81-31.97-.66-14.55,4.56-26.88,15.65-32.41,31.12-1.83,5.11-2.78,10.31-2.93,15.46-.64,21.23,12.31,41.39,33.39,48.93,26.19,9.37,55.02-4.27,64.39-30.47ZM925.66,241.44c-15.81-5.65-25.52-20.76-25.04-36.68.12-3.86.83-7.76,2.2-11.59,4.15-11.6,13.39-19.92,24.3-23.33,7.56-2.36,15.93-2.38,23.97.49.8.29,1.59.6,2.35.93,3.48,1.51,6.63,3.5,9.4,5.85,11.61,9.88,16.52,26.27,11.08,41.49-7.02,19.64-28.63,29.86-48.27,22.84Z"/>
              <path class="cls-37" d="M927.12,169.84l-3.76-12.03c-14.55,4.56-26.88,15.65-32.41,31.12-1.83,5.11-2.78,10.31-2.93,15.46l12.6.38c.12-3.86.83-7.76,2.2-11.59,4.15-11.6,13.39-19.92,24.3-23.33Z"/>
              <path class="cls-32" d="M953.44,171.26l5.03-11.56c-1.02-.44-2.07-.86-3.14-1.24-10.72-3.83-21.88-3.81-31.97-.66l3.76,12.03c7.56-2.36,15.93-2.38,23.97.49.8.29,1.59.6,2.35.93Z"/>
              <path class="cls-13" d="M971.01,167.51c-3.69-3.15-7.89-5.79-12.54-7.81l-5.03,11.56c3.48,1.51,6.63,3.5,9.4,5.85l8.17-9.61Z"/>
            </g>
            <rect class="cls-8" x="1128.62" y="325.09" width="17.48" height="59.87"/>
            <rect class="cls-6" x="1102.63" y="341.88" width="17.48" height="43.07"/>
            <g class="cls-12">
              <rect class="cls-38" x="1153.83" y="297.34" width="17.48" height="87.61"/>
            </g>
            <polygon class="cls-7" points="1168.49 253.57 1168.18 251.68 1122.05 259.24 1107.1 291.11 1057.37 294.48 1041.26 318.25 1003.24 317.3 1003.19 319.22 1042.25 320.19 1058.43 296.33 1108.35 292.94 1123.36 260.96 1168.49 253.57"/>
            <path class="cls-37" d="M1112.12,173.79h49.71c3.14,0,5.68-2.54,5.68-5.68h0c0-3.14-2.54-5.68-5.68-5.68h-49.71c-3.14,0-5.68,2.54-5.68,5.68h0c0,3.14,2.54,5.68,5.68,5.68Z"/>
            <path class="cls-11" d="M1112.12,193.62h49.71c3.14,0,5.68-2.54,5.68-5.68h0c0-3.14-2.54-5.68-5.68-5.68h-49.71c-3.14,0-5.68,2.55-5.68,5.68h0c0,3.14,2.54,5.68,5.68,5.68Z"/>
            <path class="cls-9" d="M1112.12,213.44h49.71c3.14,0,5.68-2.54,5.68-5.68h0c0-3.14-2.54-5.68-5.68-5.68h-49.71c-3.14,0-5.68,2.54-5.68,5.68h0c0,3.14,2.54,5.68,5.68,5.68Z"/>
            <polygon class="cls-16" points="1022.14 183.62 993.71 183.62 993.71 182.53 1021.69 182.53 1036.66 167.56 1054.99 167.56 1054.99 168.65 1037.11 168.65 1022.14 183.62"/>
            <polygon class="cls-14" points="1049.09 233.28 1012.5 233.28 1000.65 221.43 1001.42 220.65 1012.95 232.19 1049.09 232.19 1049.09 233.28"/>
            <rect class="cls-37" x="1039.36" y="174.79" width="37.92" height="4.65"/>
            <rect class="cls-37" x="1027.8" y="222.23" width="30.53" height="4.66"/>
          </g>
          <g>
            <path class="cls-4" d="M732.56,226.89c11.52-5.51,23,31.18,23,31.18,19.59,25.89,46.96-8.55,44.29,30.15-4.68,67.71,77.94,21.29,39.82,91.98-38.11,70.69,33.66,39.97,9.97,96.97-23.69,57,7.01,124.99-28.63,97.05,0,0-31.38-68.82-63.75-90.11-32.37-21.29,19.39-46.56,9.26-75.48-14.71-42.01-50.15-40.36-24.59-85.5,25.55-45.14-48.55-77.5-9.37-96.24Z"/>
            <path class="cls-33" d="M832.29,548.31c-15.45-10.86-33.53-86.58-34.61-131.68-.56-23.1-7.38-32.72-13.41-41.22-5.76-8.12-10.73-15.13-7.83-31.22,5.54-30.76-9.02-44.04-9.17-44.17l1.68-1.92c.65.57,15.81,14.26,10,46.54-2.71,15.04,1.75,21.33,7.4,29.29,5.93,8.36,13.31,18.75,13.88,42.64,1.16,48.4,19.64,119.89,33.52,129.65l-1.47,2.09Z"/>
            <path class="cls-15" d="M838.07,553.93c-1.99,0-4.16-.23-6.53-.71-5.96-1.2-9.86-4.34-11.61-9.34-4.16-11.91,5.49-31.26,13.32-40.59.13-.16,13.24-16.18,11.84-38.38-.23-3.72-.62-7.17-.96-10.2-.98-8.79-1.69-15.14,2.08-19.38,3.33-3.74,9.75-5.36,21.47-5.41,20.56-.09,28.69-8.6,35.22-15.45,2.77-2.91,5.39-5.65,8.58-7.39h0c10.25-5.6,21.1-6.42,25.81-1.96,2.24,2.12,4.12,6.27.42,14.01-3.38,7.08-7.77,11.56-11.3,15.15-4.75,4.84-7.88,8.04-6.25,14.42.38,1.5.83,3.01,1.27,4.53,3.17,10.84,6.76,23.13-11.79,31.46-3.94,1.77-7.52,3.18-10.69,4.42-12.95,5.08-20.77,8.15-29.6,26.78-1.71,3.61-3.22,7.03-4.67,10.33-6.96,15.78-12.22,27.7-26.6,27.7ZM912.7,409.32c-2.83,1.55-5.21,4.03-7.96,6.91-6.87,7.19-15.41,16.14-37.06,16.24-10.78.05-16.82,1.45-19.57,4.55-3.02,3.39-2.36,9.26-1.45,17.39.34,3.07.73,6.55.97,10.33,1.47,23.26-11.87,39.5-12.43,40.18-7.75,9.23-16.53,27.61-12.86,38.1,1.43,4.08,4.69,6.67,9.7,7.68,17.48,3.53,22.3-7.4,30.29-25.52,1.47-3.32,2.98-6.76,4.7-10.39,9.26-19.55,17.9-22.94,30.97-28.07,3.14-1.23,6.7-2.62,10.57-4.37,16.53-7.43,13.55-17.63,10.39-28.42-.45-1.54-.9-3.08-1.29-4.61-1.99-7.77,1.93-11.78,6.9-16.84,3.57-3.64,7.62-7.77,10.82-14.47,1.68-3.51,3.06-8.27.13-11.05-3.86-3.66-13.67-2.65-22.82,2.34h0Z"/>
            <path class="cls-17" d="M831.81,568.68l-2.55-.13c.13-2.4,3.35-58.9,26.03-75.44,24.89-18.14,32.74-37.64,36.48-50.73,4.4-15.42,26.82-19.54,27.77-19.71l.44,2.52c-.22.04-21.8,4.01-25.76,17.89-3.84,13.45-11.9,33.49-37.43,52.09-21.72,15.83-24.96,72.94-24.98,73.51Z"/>
            <path class="cls-18" d="M883.69,283.91c-16.12-5.52-12.78,25.55-19.59,48.55-6.81,23-75.8,10.03-46.84,67.61,28.96,57.59-36.62,19.26-17.04,69.51,19.59,50.25,1.7,103.99,23,90.32,21.29-13.67,11.96-76.95,34.11-84.47,22.14-7.52,25.76-16.29,3.83-36.73-21.92-20.44,57.45-40.73,37.87-82.01-19.59-41.27,3.3-66.4-15.33-72.79Z"/>
            <path class="cls-33" d="M833.09,557.49c-2.03-8.6-19.34-84.3-3.19-93.46,14.24-8.06,13.89-39.43,11.67-69.06-1.97-26.22,31.71-38.48,33.14-38.99l.85,2.41c-.33.12-33.27,12.12-31.45,36.39,2.28,30.42,2.53,62.7-12.96,71.47-12.27,6.95-.97,67.79,4.41,90.65l-2.49.58Z"/>
            <polygon class="cls-39" points="869.75 530.54 846.73 617.89 795.28 617.89 772.26 530.54 869.75 530.54"/>
            <path class="cls-40" d="M869.75,530.54s-50.68,9.51-50.68,87.34h-23.79l-23.02-87.34h97.5Z"/>
          </g>
          <g>
            <rect class="cls-43" x="941.2" y="417.07" width="72.53" height="4.31"/>
            <rect class="cls-31" x="950.93" y="432.58" width="6.36" height="195.82" transform="translate(1908.21 1060.98) rotate(180)"/>
            <rect class="cls-35" x="1002.39" y="415.85" width="50.42" height="6.15"/>
            <rect class="cls-44" x="1018.05" y="363.39" width="19.09" height="57.99"/>
            <rect class="cls-46" x="915.18" y="421.45" width="279.35" height="11.13"/>
            <path class="cls-39" d="M861.57,354.06s-3.06,42.84,5.32,47.97c5.24,3.21,26.16,14.05,25.53,16.08-.62,2.03-11.8,18.08-11.8,18.08,0,0-40.16-26.45-41.46-34.79-1.26-8.14,1.98-62.73,7.5-65.25,4.13-1.88,6.31-.33,11.53,3.54,7.31,5.43,3.39,14.36,3.39,14.36Z"/>
            <path class="cls-3" d="M910.99,601.66s-1.25,8.67-1.41,9.97c-.15,1.3-13.89-.77-13.89-.77l-1.11-10.32s14.69-.1,16.41,1.12Z"/>
            <path class="cls-47" d="M909.73,610.53s4.35,5.22,8.57,7.5c4.21,2.28,10.83,3.18,13.31,5.54,1.8,1.7,6.54,9.03-10.94,8.88-17.48-.15-25.92,1.04-27.79-1.77-1.88-2.81,2.71-20.73,2.71-20.73,0,0,4.14,1.49,14.14.59Z"/>
            <path class="cls-3" d="M999,601.75s-1.25,8.67-1.41,9.97c-.16,1.3-13.89-.77-13.89-.77l-1.11-10.32s14.69-.11,16.41,1.12Z"/>
            <path class="cls-47" d="M997.74,610.62s4.35,5.22,8.57,7.5c4.21,2.28,19.7,4.15,22.19,6.51,1.8,1.7,4.79,8.55-19.82,7.91-17.48-.45-25.92,1.04-27.79-1.77-1.88-2.81,2.71-20.73,2.71-20.73,0,0,3.9,1.59,14.14.59Z"/>
            <path class="cls-47" d="M866.68,451.91s49.95,8.45,61.23,10.22c11.28,1.77,72.45,16.99,80.1,21.63,6.09,3.7-3.2,92.36-5.36,126.18h-24.09l-1.75-101.47c-28.91.72-49.54-6.76-70.59-3.56-21.05,3.19-38.6,7.74-51.98-10.2,0,0-.49-38.87,12.45-42.79Z"/>
            <path class="cls-47" d="M915.91,610.03l-23.48-1.45-2.29-100.1c-12.44.31-16.71-.48-26.78-1.7l-18.96-44.06c16.61,3.32,69.84,16.75,76.94,21.05,6.09,3.7-3.26,92.44-5.43,126.27Z"/>
            <path class="cls-1" d="M889.67,264.7s18.31-5.06,25.29,9.15c6.98,14.21,3.82,41.15-5.41,43.69-9.23,2.53-22.5-.38-26.33-9.23-3.83-8.84-6.88-21.41-5.97-29.56.92-8.14,7.55-12.11,12.41-14.06Z"/>
            <path class="cls-1" d="M904.77,314.7s-.2,10.81.99,13.12c1.19,2.3-25.49,1.73-25.49,1.73,0,0,4.2-12.98,1.82-24.04-2.36-10.95,22.68,9.2,22.68,9.2Z"/>
            <path class="cls-27" d="M880.65,301.41s1.43,2.9,8.34,2.43c6.91-.47,16.02-8.8,18.95-9.54,2.93-.74,3.11-2.41,3.11-2.41l1.55,2.76,3.01.46s-2.04-8.36,2.41-11.3c4.45-2.94-2-26.63-24.53-20.91,0,0-17.19,3.15-17.42,12.75-.23,9.6,1.26,20.68,4.59,25.77Z"/>
            <path class="cls-43" d="M907.16,327.54s-.07-4.4-2.07-4.83c-1.99-.42-20.98-3.03-23.43-2.07l-1.05,5.81s4.72,2.91,26.55,1.08Z"/>
            <path class="cls-1" d="M912.66,289.92c-.51-3.61-4.61-7.75-6.96-2.13-2.35,5.62,1.59,13.81,4.22,13.37,2.64-.44,3.44-6.34,2.74-11.24Z"/>
            <path class="cls-30" d="M986.67,379.56s-.02,0-.03,0c.14.06.15.07.03,0Z"/>
            <path class="cls-27" d="M884.33,267.27s-22.32-1.05-3.9,33.8l3.9-33.8Z"/>
            <polygon class="cls-41" points="834.59 621.9 836.25 626.57 906.42 604.83 903.06 595.37 834.59 621.9"/>
            <rect class="cls-41" x="900.85" y="525.22" width="7.98" height="76.29"/>
            <rect class="cls-29" x="881.32" y="521.16" width="47.04" height="4.5"/>
            <polygon class="cls-41" points="975.7 621.9 974.04 626.57 903.87 604.83 906.96 594.78 975.7 621.9"/>
            <polygon class="cls-41" points="926.26 626.07 926.26 631.51 903.87 604.83 906.96 594.78 926.26 626.07"/>
            <path class="cls-19" d="M982.26,628.4c0,3.62-2.93,6.55-6.56,6.55s-6.55-2.94-6.55-6.55,2.94-6.56,6.55-6.56,6.56,2.93,6.56,6.56Z"/>
            <path class="cls-19" d="M926.82,628.4c0,3.62-2.94,6.55-6.56,6.55s-6.56-2.94-6.56-6.55,2.93-6.56,6.56-6.56,6.56,2.93,6.56,6.56Z"/>
            <path class="cls-19" d="M841.15,628.4c0,3.62-2.93,6.55-6.56,6.55s-6.55-2.94-6.55-6.55,2.93-6.56,6.55-6.56,6.56,2.93,6.56,6.56Z"/>
            <path class="cls-37" d="M952.35,521.16h-94.41c-4.7,0-8.51-3.81-8.51-8.51h0c0-4.7,3.81-8.51,8.51-8.51h94.41c4.7,0,8.51,3.81,8.51,8.51h0c0,4.7-3.81,8.51-8.51,8.51Z"/>
            <rect class="cls-31" x="1152.43" y="432.58" width="6.36" height="195.82"/>
            <path class="cls-24" d="M956.87,275.02h141.44c6.46,0,11.71,5.25,11.71,11.71v92.89c0,6.46-5.24,11.71-11.71,11.71h-141.45c-6.46,0-11.71-5.25-11.71-11.71v-92.88c0-6.46,5.25-11.71,11.71-11.71Z"/>
            <rect class="cls-22" x="951.62" y="281.31" width="151.95" height="91.79"/>
            <path class="cls-42" d="M1096.82,381.76c0,2.61-2.74,4.72-6.12,4.72s-6.13-2.11-6.13-4.72,2.74-4.73,6.13-4.73,6.12,2.12,6.12,4.73Z"/>
            <path class="cls-44" d="M1061.72,421.6v-2.07s-2.91-12.87-23.49-12.87-20.16,14.95-20.16,14.95h43.65Z"/>
            <path class="cls-1" d="M1017.82,408.57s4.47-.35,6.11-1.34c1.64-.99,11.44-7.58,13.74-6.53,2.3,1.06,17.62,5.75,17.09,7.99-.53,2.24-1.95,2.02-3.03,1.63-1.08-.4-12.2-2.73-13.19-2.34,0,0,10.93,3.99,10.97,6.89.05,2.91-2.28,3.62-3.32,4.72-1.04,1.1-2.28,3.83-5.1,4.04-2.82.21-16.56-4.57-19.39-4.79-2.83-.22-8.06.17-8.42-.29-.35-.46,4.53-9.99,4.53-9.99Z"/>
            <path class="cls-39" d="M936.42,333.64c-14.26-2.51-29.26-6.1-29.26-6.1l-26.55-1.08s-24.37,5.37-33.96,9.7c-.91.41-.92,21.74-3.41,27.33l7.96,16.78s4.59,33.25,5.55,48.03c.44,6.79-1.24,65.61-1.24,65.61,0,0,2.38,1.17,20.5,3.17,18.12,2,63.39-.72,63.68-2.86.29-2.14-8.77-79.69-9.17-83.71-.62-6.16,1.78-34.65,1.78-34.65,3.41,4.59,12.12,25.3,21.19,35.15,5.34,5.79,31.76,9.35,36.74,9.51,10.84.36,30.62,2.52,31.2,1.47.46-.64,1.72-17.56.48-17.97-1.09-.36-37.81-2.47-47.22-7.47-3.44-1.83-13.73-24.26-13.73-24.26,0,0-16.67-35.13-24.54-38.66Z"/>
            <path class="cls-37" d="M843.81,385.77h36.03c11.26,0,20.41,9.14,20.41,20.41v65.62c0,11.26-9.14,20.4-20.4,20.4h-36.04c-11.26,0-20.41-9.14-20.41-20.41v-65.62c0-11.27,9.15-20.41,20.41-20.41Z"/>
            <path class="cls-32" d="M886.63,516.93c-11.33,0-20.52-3.8-27.32-11.31-15.36-16.96-12.6-46.77-12.47-48.03.23-2.35,2.33-4.07,4.67-3.84,2.35.24,4.06,2.33,3.84,4.68-.04.34-2.48,27.37,10.32,41.47,5.18,5.71,12.03,8.48,20.96,8.48,2.36,0,4.27,1.91,4.27,4.27s-1.92,4.28-4.27,4.28Z"/>
            <path class="cls-25" d="M963.68,288.62h41.93c.71,0,1.29.58,1.29,1.29v2.27c0,.71-.58,1.29-1.29,1.29h-41.94c-.71,0-1.29-.58-1.29-1.29v-2.28c0-.71.58-1.29,1.29-1.29Z"/>
            <path class="cls-25" d="M963.68,299.02h41.94c.71,0,1.29.58,1.29,1.29v2.27c0,.71-.58,1.29-1.29,1.29h-41.93c-.71,0-1.29-.58-1.29-1.29v-2.28c0-.71.58-1.28,1.28-1.28Z"/>
            <path class="cls-25" d="M968.03,310.95h33.22c3.12,0,5.65,2.53,5.65,5.65v43.55c0,3.11-2.53,5.64-5.64,5.64h-33.22c-3.12,0-5.65-2.53-5.65-5.65v-43.55c0-3.11,2.53-5.64,5.64-5.64Z"/>
            <path class="cls-25" d="M1024.82,288.62h61.4c4.93,0,8.93,4,8.93,8.93v59.3c0,4.93-4,8.93-8.93,8.93h-61.4c-4.93,0-8.93-4-8.93-8.93v-59.3c0-4.93,4-8.93,8.93-8.93Z"/>
          </g>
        </g>
      </g>
    </g>
  </g>
</svg>