<?xml version="1.0" encoding="UTF-8"?>
<svg id="Ebene_2" data-name="Ebene 2" xmlns="http://www.w3.org/2000/svg" xmlns:xlink="http://www.w3.org/1999/xlink" viewBox="0 0 191.65 79.12">
  <defs>
    <style>
      .cls-1 {
        fill: url(#Unbenannter_Verlauf_7-6);
      }

      .cls-1, .cls-2, .cls-3, .cls-4, .cls-5, .cls-6, .cls-7, .cls-8, .cls-9, .cls-10, .cls-11, .cls-12, .cls-13, .cls-14, .cls-15, .cls-16 {
        stroke-width: 0px;
      }

      .cls-2 {
        fill: url(#Unbenannter_Verlauf_7-3);
      }

      .cls-3 {
        fill: url(#Unbenannter_Verlauf_7-4);
      }

      .cls-4 {
        fill: url(#Unbenannter_Verlauf_7-2);
      }

      .cls-5 {
        fill: url(#Unbenannter_Verlauf_7-5);
      }

      .cls-6 {
        fill: url(#Unbenannter_Verlauf_7-8);
      }

      .cls-7 {
        fill: url(#Unbenannter_Verlauf_7-7);
      }

      .cls-8 {
        fill: url(#Unbenannter_Verlauf_7-9);
      }

      .cls-9 {
        fill: url(#Unbenannter_Verlauf_3-7);
      }

      .cls-10 {
        fill: url(#Unbenannter_Verlauf_3-6);
      }

      .cls-11 {
        fill: url(#Unbenannter_Verlauf_3-5);
      }

      .cls-12 {
        fill: url(#Unbenannter_Verlauf_3-3);
      }

      .cls-13 {
        fill: url(#Unbenannter_Verlauf_3-2);
      }

      .cls-14 {
        fill: url(#Unbenannter_Verlauf_3-4);
      }

      .cls-15 {
        fill: url(#Unbenannter_Verlauf_7);
      }

      .cls-16 {
        fill: url(#Unbenannter_Verlauf_3);
      }
    </style>
    <linearGradient id="Unbenannter_Verlauf_3" data-name="Unbenannter Verlauf 3" x1="-1.05" y1="53.63" x2="187.55" y2="-11.83" gradientUnits="userSpaceOnUse">
      <stop offset=".08" stop-color="#faab36"/>
      <stop offset=".49" stop-color="#f78104"/>
      <stop offset=".94" stop-color="#e95709"/>
    </linearGradient>
    <linearGradient id="Unbenannter_Verlauf_3-2" data-name="Unbenannter Verlauf 3" x1="1.39" y1="60.66" x2="189.98" y2="-4.81" xlink:href="#Unbenannter_Verlauf_3"/>
    <linearGradient id="Unbenannter_Verlauf_3-3" data-name="Unbenannter Verlauf 3" x1="7.67" y1="78.73" x2="196.26" y2="13.26" xlink:href="#Unbenannter_Verlauf_3"/>
    <linearGradient id="Unbenannter_Verlauf_3-4" data-name="Unbenannter Verlauf 3" x1="7" y1="76.81" x2="195.59" y2="11.34" xlink:href="#Unbenannter_Verlauf_3"/>
    <linearGradient id="Unbenannter_Verlauf_3-5" data-name="Unbenannter Verlauf 3" x1="9.95" y1="85.31" x2="198.54" y2="19.84" xlink:href="#Unbenannter_Verlauf_3"/>
    <linearGradient id="Unbenannter_Verlauf_3-6" data-name="Unbenannter Verlauf 3" x1="-6.34" y1="38.39" x2="182.25" y2="-27.07" xlink:href="#Unbenannter_Verlauf_3"/>
    <linearGradient id="Unbenannter_Verlauf_3-7" data-name="Unbenannter Verlauf 3" x1="-6.34" y1="38.39" x2="182.25" y2="-27.07" xlink:href="#Unbenannter_Verlauf_3"/>
    <linearGradient id="Unbenannter_Verlauf_7" data-name="Unbenannter Verlauf 7" x1="2.11" y1="80.28" x2="192" y2="14.48" gradientUnits="userSpaceOnUse">
      <stop offset="0" stop-color="#f7aa36"/>
      <stop offset=".08" stop-color="#f7aa36"/>
      <stop offset=".49" stop-color="#ef8013"/>
      <stop offset=".94" stop-color="#e8570d"/>
      <stop offset="1" stop-color="#e8570d"/>
    </linearGradient>
    <linearGradient id="Unbenannter_Verlauf_7-2" data-name="Unbenannter Verlauf 7" x1="2.85" y1="82.44" x2="192.75" y2="16.63" xlink:href="#Unbenannter_Verlauf_7"/>
    <linearGradient id="Unbenannter_Verlauf_7-3" data-name="Unbenannter Verlauf 7" x1="5.13" y1="88.99" x2="195.02" y2="23.18" xlink:href="#Unbenannter_Verlauf_7"/>
    <linearGradient id="Unbenannter_Verlauf_7-4" data-name="Unbenannter Verlauf 7" x1="6.33" y1="92.46" x2="196.22" y2="26.66" xlink:href="#Unbenannter_Verlauf_7"/>
    <linearGradient id="Unbenannter_Verlauf_7-5" data-name="Unbenannter Verlauf 7" x1="7.55" y1="95.98" x2="197.44" y2="30.18" xlink:href="#Unbenannter_Verlauf_7"/>
    <linearGradient id="Unbenannter_Verlauf_7-6" data-name="Unbenannter Verlauf 7" x1="11.18" y1="106.47" x2="201.08" y2="40.67" xlink:href="#Unbenannter_Verlauf_7"/>
    <linearGradient id="Unbenannter_Verlauf_7-7" data-name="Unbenannter Verlauf 7" x1="12.69" y1="110.81" x2="202.58" y2="45" xlink:href="#Unbenannter_Verlauf_7"/>
    <linearGradient id="Unbenannter_Verlauf_7-8" data-name="Unbenannter Verlauf 7" x1="-.08" y1="73.96" x2="189.81" y2="8.15" xlink:href="#Unbenannter_Verlauf_7"/>
    <linearGradient id="Unbenannter_Verlauf_7-9" data-name="Unbenannter Verlauf 7" x1="9.67" y1="102.1" x2="199.56" y2="36.29" xlink:href="#Unbenannter_Verlauf_7"/>
  </defs>
  <g id="Ebene_1-2" data-name="Ebene 1">
    <g>
      <g>
        <path class="cls-16" d="M72.56,56.16c-2.26,0-4.42-.37-6.48-1.12-2.06-.74-3.89-1.81-5.47-3.2-1.63-1.39-2.89-3-3.78-4.82-.57-1.17-.96-2.38-1.16-3.62-.18-1.11.64-2.14,1.77-2.14h0c.9,0,1.63.67,1.78,1.57.23,1.43.79,2.78,1.67,4.05,1.2,1.73,2.83,3.11,4.9,4.14,2.06,1.03,4.32,1.55,6.77,1.55,3.55,0,6.55-.96,9-2.88,2.26-1.73,3.58-3.89,3.96-6.48.05-.24.07-.58.07-1.01,0-2.26-.84-4.34-2.52-6.26-2.3-2.69-5.98-4.73-11.02-6.12h0c-5.57-1.49-9.65-3.67-12.24-6.55-2.59-2.88-3.89-5.95-3.89-9.22,0-.67.02-1.18.07-1.51.19-1.73.74-3.35,1.66-4.86.91-1.51,2.11-2.84,3.6-4,1.54-1.2,3.26-2.11,5.18-2.74,1.92-.62,3.96-.94,6.12-.94s4.4.37,6.44,1.12c2.04.75,3.85,1.81,5.44,3.2,1.63,1.39,2.89,3.01,3.78,4.86.57,1.19.96,2.41,1.16,3.66.18,1.11-.64,2.14-1.77,2.14h0c-.9,0-1.64-.68-1.78-1.57-.23-1.46-.79-2.84-1.68-4.12-1.2-1.73-2.83-3.11-4.9-4.14-2.06-1.03-4.3-1.55-6.7-1.55-3.6,0-6.62.96-9.07,2.88-2.3,1.78-3.6,3.94-3.89,6.48-.05.29-.07.7-.07,1.22,0,2.26.82,4.27,2.45,6.05,2.4,2.78,6.07,4.82,11.02,6.12,5.57,1.49,9.65,3.67,12.24,6.55,2.59,2.88,3.89,5.95,3.89,9.22,0,.67-.02,1.18-.07,1.51-.19,1.73-.75,3.35-1.66,4.86-.91,1.51-2.11,2.84-3.6,4-3.12,2.45-6.86,3.67-11.23,3.67Z"/>
        <path class="cls-13" d="M97.83,53.42h0c-.99,0-1.8-.81-1.8-1.8V2.74c0-.99.81-1.8,1.8-1.8h0c.99,0,1.8.81,1.8,1.8v48.89c0,.99-.81,1.8-1.8,1.8Z"/>
        <path class="cls-12" d="M172.84,59.78c.66.64.62,1.69-.06,2.3-3.92,3.55-8.31,5.83-13.17,6.82-1.63.34-3.34.5-5.11.5-3.5,0-6.84-.67-10.01-2.02-2.93-1.2-5.62-2.89-8.06-5.08-2.45-2.18-4.58-4.76-6.41-7.74-1.87-3.17-3.31-6.62-4.32-10.37-.82-3.17-1.31-6.26-1.46-9.29-.04-.84-.72-1.51-1.56-1.51h-11.39c-.86,0-1.57.7-1.57,1.57v16.74c0,.86-.7,1.57-1.57,1.57h-.47c-.86,0-1.57-.7-1.57-1.57V2.5c0-.86.7-1.57,1.57-1.57h17.74c1.82,0,3.65.19,5.38.74,2.55.8,4.76,2.14,6.64,4.01,1.54,1.54,2.71,3.3,3.53,5.29.82,1.99,1.22,4.07,1.22,6.23s-.41,4.22-1.22,6.19c-.82,1.97-1.99,3.72-3.53,5.26-2.41,2.37-5.2,3.87-8.37,4.48-.74.14-1.28.82-1.24,1.58.14,2.85.58,5.7,1.32,8.56.96,3.55,2.28,6.7,3.96,9.43,1.58,2.64,3.46,4.93,5.62,6.88,2.16,1.94,4.54,3.44,7.13,4.5,2.83,1.15,5.71,1.73,8.64,1.73s6.05-.62,8.93-1.87c2.47-1.07,4.78-2.58,6.93-4.53.61-.55,1.53-.56,2.11.01l.37.36ZM109.71,28.24c0,.86.7,1.57,1.57,1.57h14.63c1.68,0,3.29-.32,4.82-.97,1.54-.65,2.9-1.57,4.1-2.77s2.12-2.57,2.77-4.1c.65-1.54.97-3.12.97-4.75s-.32-3.29-.97-4.82c-.65-1.54-1.57-2.9-2.77-4.1-1.2-1.2-2.57-2.12-4.1-2.77-1.54-.65-3.14-.97-4.82-.97h-14.63c-.86,0-1.57.7-1.57,1.57v22.14Z"/>
        <path class="cls-14" d="M150.18,53.28h0c-.99,0-1.8-.81-1.8-1.8V2.74c0-.99.81-1.8,1.8-1.8h0c.99,0,1.8.81,1.8,1.8v48.74c0,.99-.81,1.8-1.8,1.8Z"/>
        <path class="cls-11" d="M174.8,56.16c-2.26,0-4.42-.37-6.48-1.12-2.06-.74-3.89-1.81-5.47-3.2-1.63-1.39-2.89-3-3.78-4.82-.57-1.17-.96-2.38-1.16-3.62-.18-1.11.64-2.14,1.77-2.14h0c.9,0,1.63.67,1.78,1.57.23,1.43.79,2.78,1.67,4.05,1.2,1.73,2.83,3.11,4.9,4.14,2.06,1.03,4.32,1.55,6.77,1.55,3.55,0,6.55-.96,9-2.88,2.26-1.73,3.58-3.89,3.96-6.48.05-.24.07-.58.07-1.01,0-2.26-.84-4.34-2.52-6.26-2.3-2.69-5.98-4.73-11.02-6.12h0c-5.57-1.49-9.65-3.67-12.24-6.55-2.59-2.88-3.89-5.95-3.89-9.22,0-.67.02-1.18.07-1.51.19-1.73.74-3.35,1.66-4.86.91-1.51,2.11-2.84,3.6-4,1.54-1.2,3.26-2.11,5.18-2.74,1.92-.62,3.96-.94,6.12-.94s4.4.37,6.44,1.12c2.04.75,3.85,1.81,5.44,3.2,1.63,1.39,2.89,3.01,3.78,4.86.57,1.19.96,2.41,1.16,3.66.18,1.11-.64,2.14-1.77,2.14h0c-.9,0-1.64-.68-1.78-1.57-.23-1.46-.79-2.84-1.68-4.12-1.2-1.73-2.83-3.11-4.9-4.14-2.06-1.03-4.3-1.55-6.7-1.55-3.6,0-6.62.96-9.07,2.88-2.3,1.78-3.6,3.94-3.89,6.48-.05.29-.07.7-.07,1.22,0,2.26.82,4.27,2.45,6.05,2.4,2.78,6.07,4.82,11.02,6.12,5.57,1.49,9.65,3.67,12.24,6.55,2.59,2.88,3.89,5.95,3.89,9.22,0,.67-.02,1.18-.07,1.51-.19,1.73-.75,3.35-1.66,4.86-.91,1.51-2.11,2.84-3.6,4-3.12,2.45-6.86,3.67-11.23,3.67Z"/>
      </g>
      <circle class="cls-10" cx="26.17" cy="27.11" r="9.42"/>
      <path class="cls-9" d="M26.17,4.44c12.5,0,22.67,10.17,22.67,22.67s-10.17,22.67-22.67,22.67S3.5,39.61,3.5,27.11,13.67,4.44,26.17,4.44M26.17.94C11.72.94,0,12.65,0,27.11s11.72,26.17,26.17,26.17,26.17-11.72,26.17-26.17S40.63.94,26.17.94h0Z"/>
    </g>
    <g>
      <path class="cls-15" d="M21.75,79.12c-1.03,0-1.95-.23-2.76-.69-.81-.46-1.45-1.12-1.91-1.96-.46-.85-.69-1.84-.69-2.98s.23-2.14.69-2.98c.46-.85,1.1-1.5,1.91-1.96.81-.46,1.74-.69,2.78-.69s1.96.23,2.77.69c.8.46,1.43,1.12,1.89,1.96.46.85.68,1.84.68,2.98s-.23,2.14-.69,2.98c-.46.85-1.1,1.5-1.9,1.96s-1.73.69-2.77.69ZM21.75,76.92c.55,0,1.06-.12,1.52-.37s.84-.63,1.12-1.14c.28-.51.42-1.16.42-1.94s-.14-1.45-.42-1.95c-.28-.51-.65-.88-1.11-1.13-.46-.25-.96-.37-1.51-.37s-1.06.12-1.52.37c-.46.25-.84.62-1.12,1.13-.28.51-.42,1.16-.42,1.95,0,1.19.3,2.06.9,2.61s1.31.83,2.14.83Z"/>
      <path class="cls-4" d="M30.81,77.86h0c0-.55.45-1,1-1h1.61c.55,0,1-.45,1-1v-9.92c0-.48-.23-.72-.69-.72h-1.61c-.55,0-1-.45-1-1h0c0-.55.45-1,1-1h2.02c.84,0,1.48.22,1.92.66s.66,1.08.66,1.92v10.05c0,.55.45,1,1,1h1.63c.55,0,1,.45,1,1h0c0,.55-.45,1-1,1h-7.53c-.55,0-1-.45-1-1Z"/>
      <path class="cls-2" d="M49,79.12c-1.3,0-2.29-.4-2.96-1.21-.67-.8-1.01-1.97-1.01-3.5v-5.26c0-.58.47-1.06,1.06-1.06h.18c.58,0,1.06.47,1.06,1.06v4.97c0,.88.19,1.57.58,2.07.38.5.97.75,1.77.75s1.46-.27,2-.8.8-1.31.8-2.32v-4.67c0-.58.47-1.06,1.06-1.06h.18c.58,0,1.06.47,1.06,1.06v8.64c0,.58-.47,1.06-1.06,1.06h0c-.54,0-.99-.4-1.05-.93l-.08-.67h-.11c-.29.52-.74.96-1.34,1.32s-1.32.54-2.13.54Z"/>
      <path class="cls-3" d="M65.23,78.85c-1.06,0-1.9-.26-2.52-.77-.62-.51-.93-1.43-.93-2.75v-5.18c0-.06-.05-.11-.11-.11h-1.63c-.54,0-.97-.44-.97-.97h0c0-.55.44-.98.97-.98h.54c.69,0,1.28-.49,1.41-1.17l.16-.86c.09-.46.49-.79.96-.79h0c.54,0,.97.44.97.97v1.74c0,.06.05.11.11.11h3.17c.54,0,.97.44.97.97h0c0,.55-.44.98-.97.98h-3.17c-.06,0-.11.05-.11.11v5.14c0,.56.13.96.38,1.18s.69.34,1.31.34h1.5c.56,0,1.02.46,1.02,1.02h0c0,.56-.46,1.02-1.02,1.02h-2.04Z"/>
      <path class="cls-5" d="M73.63,77.86h0c0-.55.45-1,1-1h1.39c.55,0,1-.45,1-1v-5.06c0-.48-.23-.72-.69-.72h-1.39c-.55,0-1-.45-1-1h0c0-.55.45-1,1-1h1.8c.9,0,1.55.21,1.96.62.41.41.62,1.07.62,1.96v5.19c0,.55.45,1,1,1h1.39c.55,0,1,.45,1,1h0c0,.55-.45,1-1,1h-7.07c-.55,0-1-.45-1-1ZM77.94,66.44c-.51,0-.93-.16-1.27-.49-.34-.33-.51-.73-.51-1.2s.17-.88.51-1.19c.34-.32.76-.48,1.27-.48s.95.16,1.29.48c.34.32.51.72.51,1.19s-.17.88-.51,1.2c-.34.33-.77.49-1.29.49Z"/>
      <path class="cls-1" d="M101.55,77.8v-8.65c0-.58.47-1.06,1.06-1.06h0c.54,0,.99.4,1.05.93l.08.67h.11c.29-.52.74-.96,1.35-1.32s1.31-.54,2.1-.54c1.32,0,2.31.4,2.97,1.19.67.79,1,1.97,1,3.51v5.26c0,.58-.47,1.06-1.06,1.06h-.18c-.58,0-1.06-.47-1.06-1.06v-4.97c0-.9-.19-1.59-.56-2.08-.38-.49-.97-.74-1.78-.74s-1.46.27-1.99.8c-.53.54-.79,1.31-.79,2.32v4.67c0,.58-.47,1.06-1.06,1.06h-.18c-.58,0-1.06-.47-1.06-1.06Z"/>
      <path class="cls-7" d="M120.56,79.12c-1.42,0-2.55-.33-3.38-1-.38-.3-.68-.64-.91-1.03-.43-.71.06-1.62.9-1.62h.21c.4,0,.75.24.94.59.13.25.32.46.57.64.43.32.99.48,1.7.48s1.2-.14,1.57-.42.55-.61.55-.99c0-.55-.22-.93-.66-1.13-.44-.2-1.09-.35-1.94-.46-.74-.09-1.41-.26-2.01-.51-.6-.25-1.07-.6-1.42-1.04-.35-.44-.52-.99-.52-1.66,0-.94.37-1.7,1.11-2.28.74-.58,1.76-.87,3.08-.87s2.34.3,3.06.89c.29.24.54.52.73.83.43.7-.09,1.6-.91,1.6h-.05c-.4,0-.72-.25-.94-.58-.11-.17-.27-.32-.46-.45-.39-.25-.88-.38-1.45-.38s-1.06.11-1.41.34c-.35.22-.52.52-.52.88,0,.78.84,1.26,2.52,1.43.8.09,1.5.23,2.13.44s1.11.54,1.48.98c.36.44.54,1.06.54,1.86.01.65-.17,1.24-.55,1.76-.38.52-.91.93-1.58,1.24-.67.3-1.46.46-2.35.46Z"/>
      <path class="cls-6" d="M12.36,72.57c-.36-.57-.84-1.04-1.45-1.41-.62-.37-1.32-.68-2.12-.94-1.27-.42-2.19-.83-2.76-1.23-.43-.3-.7-.7-.8-1.18-.18-.82.26-1.72,1.02-2.08.39-.19.83-.27,1.34-.26.55,0,1.01.11,1.39.34.38.22.67.51.87.85.05.08.07.16.11.24,0,0,.27.81.79.81h.77c.64,0,1.09-.61.92-1.23-.21-.77-.62-1.42-1.22-1.93-.9-.76-2.08-1.14-3.56-1.14s-2.71.37-3.58,1.11c-.87.74-1.3,1.71-1.3,2.91,0,1.04.3,1.92.89,2.64.59.72,1.52,1.28,2.78,1.68.94.3,1.71.6,2.3.88s1.03.6,1.31.96c.28.35.42.8.42,1.33,0,.64-.24,1.15-.72,1.55-.48.4-1.14.6-2,.6-.93,0-1.65-.27-2.16-.81-.31-.33-.53-.69-.65-1.1-.16-.5-.57-.87-1.09-.87h-.19c-.74,0-1.29.71-1.09,1.42.12.42.29.81.51,1.16.46.72,1.08,1.28,1.89,1.67s1.74.59,2.81.59,1.99-.2,2.75-.59c.76-.39,1.34-.92,1.75-1.57.4-.66.61-1.39.61-2.2,0-.88-.18-1.61-.53-2.18Z"/>
    </g>
    <path class="cls-8" d="M96.94,70.49c-.46-.85-1.08-1.5-1.89-1.96-.8-.46-1.72-.69-2.77-.69s-1.97.23-2.78.69c-.81.46-1.45,1.12-1.91,1.96-.46.85-.69,1.84-.69,2.98s.23,2.14.69,2.98c.46.85,1.1,1.5,1.91,1.96.81.46,1.73.69,2.76.69s1.96-.23,2.77-.69,1.44-1.12,1.9-1.96c.46-.85.69-1.84.69-2.98s-.23-2.14-.68-2.98ZM94.24,76.43c.06.25-.13.49-.39.49h-3.16c-.26,0-.45-.24-.39-.49l.94-3.01c-.66-.4-1.06-1.18-.92-2.03.13-.79.76-1.44,1.55-1.6,1.27-.25,2.38.72,2.38,1.94,0,.71-.38,1.34-.95,1.69l.94,3.01Z"/>
  </g>
</svg>