<?xml version="1.0" encoding="UTF-8" standalone="no"?>
<svg
   id="Livello_1"
   data-name="Livello 1"
   viewBox="0 0 480.25998 229.08"
   version="1.1"
   sodipodi:docname="bicc_logo_rgb.svg"
   width="480.25998"
   height="229.08"
   inkscape:version="1.2.2 (1:1.2.2+202212051552+b0a8486541)"
   xmlns:inkscape="http://www.inkscape.org/namespaces/inkscape"
   xmlns:sodipodi="http://sodipodi.sourceforge.net/DTD/sodipodi-0.dtd"
   xmlns="http://www.w3.org/2000/svg"
   xmlns:svg="http://www.w3.org/2000/svg">
  <sodipodi:namedview
     id="namedview21"
     pagecolor="#ffffff"
     bordercolor="#000000"
     borderopacity="0.25"
     inkscape:showpageshadow="2"
     inkscape:pageopacity="0.0"
     inkscape:pagecheckerboard="0"
     inkscape:deskcolor="#d1d1d1"
     showgrid="false"
     inkscape:zoom="1.357538"
     inkscape:cx="240.87724"
     inkscape:cy="114.5456"
     inkscape:window-width="1920"
     inkscape:window-height="1008"
     inkscape:window-x="1920"
     inkscape:window-y="0"
     inkscape:window-maximized="1"
     inkscape:current-layer="Livello_1" />
  <defs
     id="defs4">
    <style
       id="style2">
      .cls-1 {
        fill: none;
      }

      .cls-2 {
        fill: #1b2f53;
      }
    </style>
  </defs>
  <g
     id="g12"
     transform="translate(-198.96001,-200)">
    <path
       class="cls-2"
       d="m 244.18,391.02 -45.21,-3.48 v -2.68 l 2.68,-0.54 c 6.96,-1.6 10.43,-6.06 10.43,-13.38 V 227.82 c 0,-3.75 -0.58,-6.6 -1.74,-8.56 -1.16,-1.96 -3.52,-3.3 -7.09,-4.01 l -3.75,-1.07 v -2.68 l 47.62,-11.5 3.21,2.41 -1.07,37.72 v 27.02 c 5.89,-4.1 12.31,-7.18 19.26,-9.23 6.96,-2.05 14,-3.08 21.14,-3.08 10.17,0 19.17,2.37 27.02,7.09 7.85,4.73 14.05,12.04 18.59,21.94 4.55,9.9 6.82,22.61 6.82,38.12 0,15.51 -2.54,28.41 -7.62,38.66 -5.08,10.26 -11.86,17.97 -20.33,23.14 -8.47,5.17 -17.79,7.76 -27.96,7.76 -6.6,0 -13.24,-0.89 -19.93,-2.67 -6.69,-1.78 -12.62,-4.28 -17.79,-7.49 z m 28.63,-8.56 c 5.71,0 10.7,-1.78 14.98,-5.35 4.28,-3.57 7.67,-9.67 10.17,-18.33 2.5,-8.65 3.75,-20.55 3.75,-35.72 0,-15.17 -1.16,-26.84 -3.48,-35.05 -2.32,-8.2 -5.58,-13.91 -9.77,-17.12 -4.19,-3.21 -9.23,-4.82 -15.12,-4.82 -8.39,0 -16.14,2.32 -23.28,6.96 v 102.74 c 3.39,2.14 6.86,3.79 10.43,4.95 3.57,1.16 7.67,1.74 12.31,1.74 z"
       id="path6" />
    <path
       class="cls-2"
       d="m 354.4,387.54 v -2.68 l 3.75,-1.07 c 3.57,-1.07 6.02,-2.68 7.36,-4.82 1.34,-2.14 2.01,-4.99 2.01,-8.56 v -83.74 c 0,-3.75 -0.67,-6.56 -2.01,-8.43 -1.34,-1.87 -3.79,-3.17 -7.36,-3.88 l -3.75,-0.8 v -2.67 l 48.96,-15.79 2.68,2.68 -0.8,37.99 v 74.91 c 0,3.57 0.67,6.42 2.01,8.56 1.34,2.14 3.7,3.75 7.09,4.82 l 2.68,0.8 v 2.68 h -62.6 z m 31.57,-146.61 c -6.07,0 -11.19,-1.91 -15.38,-5.75 -4.19,-3.83 -6.29,-8.7 -6.29,-14.58 0,-5.88 2.09,-10.97 6.29,-14.71 4.19,-3.75 9.32,-5.62 15.38,-5.62 6.06,0 11.15,1.87 15.25,5.62 4.1,3.75 6.15,8.65 6.15,14.71 0,6.06 -2.05,10.75 -6.15,14.58 -4.1,3.84 -9.19,5.75 -15.25,5.75 z"
       id="path8" />
    <path
       class="cls-2"
       d="m 495.13,391.56 c -12.13,0 -23.14,-2.63 -33.04,-7.89 -9.9,-5.26 -17.75,-12.93 -23.54,-23.01 -5.8,-10.07 -8.69,-22.43 -8.69,-37.05 0,-14.62 3.16,-26.8 9.5,-37.05 6.33,-10.25 14.8,-18.1 25.42,-23.54 10.61,-5.44 22.25,-8.16 34.91,-8.16 10.34,0 19.08,1.7 26.22,5.08 7.13,3.39 12.57,7.8 16.32,13.24 3.75,5.44 5.62,11.1 5.62,16.99 0,5 -1.52,8.88 -4.55,11.64 -3.03,2.77 -6.96,4.15 -11.77,4.15 -5.18,0 -9.36,-1.87 -12.57,-5.62 -3.21,-3.75 -5.08,-8.65 -5.62,-14.71 -0.18,-3.92 -0.09,-7.27 0.27,-10.03 0.36,-2.76 0.36,-5.57 0,-8.43 -0.71,-3.03 -1.83,-5.04 -3.34,-6.02 -1.52,-0.98 -3.61,-1.47 -6.29,-1.47 -10.88,0 -19.31,4.73 -25.28,14.18 -5.98,9.46 -8.96,24.53 -8.96,45.21 0,18.02 3.34,31.79 10.03,41.33 6.69,9.54 16.99,14.31 30.9,14.31 8.38,0 15.16,-1.51 20.33,-4.55 5.17,-3.03 10.17,-7.58 14.98,-13.65 l 2.68,2.14 c -4.46,10.53 -11.33,18.64 -20.6,24.35 -9.28,5.71 -20.25,8.56 -32.91,8.56 z"
       id="path10" />
  </g>
  <path
     class="cls-2"
     d="m 426.72999,191.56 c -12.13,0 -23.14,-2.63 -33.04,-7.89 -9.9,-5.26 -17.75,-12.93 -23.54,-23.01 -5.8,-10.07 -8.69,-22.43 -8.69,-37.05 0,-14.62 3.16,-26.8 9.5,-37.05 6.33,-10.25 14.8,-18.1 25.42,-23.54 10.61,-5.44 22.25,-8.16 34.91,-8.16 10.34,0 19.08,1.7 26.22,5.08 7.13,3.39 12.57,7.8 16.32,13.24 3.75,5.44 5.62,11.1 5.62,16.99 0,5 -1.52,8.88 -4.55,11.64 -3.04,2.77 -6.96,4.15 -11.77,4.15 -5.18,0 -9.36,-1.87 -12.57,-5.62 -3.21,-3.75 -5.08,-8.65 -5.62,-14.71 -0.18,-3.92 -0.09,-7.27 0.27,-10.03 0.36,-2.76 0.36,-5.57 0,-8.43 -0.71,-3.03 -1.83,-5.04 -3.34,-6.02 -1.52,-0.98 -3.61,-1.47 -6.29,-1.47 -10.88,0 -19.31,4.73 -25.28,14.18 -5.98,9.46 -8.96,24.53 -8.96,45.21 0,18.02 3.34,31.79 10.03,41.33 6.69,9.54 16.99,14.31 30.9,14.31 8.38,0 15.16,-1.51 20.33,-4.55 5.17,-3.03 10.17,-7.58 14.98,-13.65 l 2.68,2.14 c -4.46,10.53 -11.33,18.64 -20.6,24.35 -9.28,5.71 -20.25,8.56 -32.91,8.56 z"
     id="path14" />
  <path
     class="cls-2"
     d="m 476.38999,226.06 c -0.13,0.17 -0.3,0.31 -0.51,0.42 -0.22,0.11 -0.48,0.19 -0.78,0.24 -0.3,0.05 -0.62,0.08 -0.97,0.08 -0.45,0 -0.94,-0.04 -1.46,-0.12 -0.52,-0.08 -1.09,-0.24 -1.7,-0.47 v 2.26 c 0.38,0.17 0.86,0.32 1.44,0.43 0.58,0.11 1.23,0.17 1.96,0.17 0.73,0 1.41,-0.08 2.02,-0.23 0.61,-0.15 1.14,-0.39 1.57,-0.71 0.44,-0.32 0.78,-0.72 1.02,-1.2 0.24,-0.48 0.37,-1.05 0.37,-1.69 0,-0.59 -0.1,-1.08 -0.3,-1.46 -0.2,-0.38 -0.46,-0.69 -0.78,-0.93 -0.32,-0.24 -0.67,-0.43 -1.07,-0.56 -0.4,-0.13 -0.79,-0.25 -1.18,-0.34 -0.25,-0.06 -0.51,-0.13 -0.78,-0.2 -0.27,-0.07 -0.52,-0.15 -0.77,-0.25 -0.24,-0.1 -0.44,-0.24 -0.57,-0.4 -0.14,-0.17 -0.21,-0.38 -0.21,-0.64 0,-0.15 0.03,-0.29 0.09,-0.43 0.06,-0.14 0.17,-0.26 0.31,-0.37 0.14,-0.11 0.33,-0.19 0.56,-0.26 0.23,-0.06 0.51,-0.09 0.84,-0.09 0.26,0 0.54,0.02 0.83,0.05 0.29,0.03 0.59,0.08 0.88,0.14 0.3,0.06 0.59,0.12 0.88,0.2 0.29,0.08 0.56,0.16 0.82,0.24 v -2.29 c -0.5,-0.18 -1.05,-0.33 -1.67,-0.44 -0.62,-0.11 -1.27,-0.17 -1.98,-0.17 -0.58,0 -1.12,0.08 -1.64,0.23 -0.52,0.15 -0.97,0.38 -1.36,0.69 -0.39,0.31 -0.7,0.7 -0.93,1.17 -0.23,0.47 -0.34,1.02 -0.34,1.66 0,0.52 0.08,0.96 0.26,1.32 0.17,0.36 0.4,0.66 0.69,0.89 0.29,0.24 0.62,0.43 1,0.57 0.38,0.15 0.77,0.27 1.18,0.38 0.32,0.08 0.63,0.16 0.93,0.24 0.3,0.08 0.56,0.17 0.79,0.28 0.23,0.11 0.41,0.24 0.55,0.4 0.14,0.16 0.21,0.36 0.21,0.6 0,0.24 -0.06,0.44 -0.19,0.61 m -11.61,-6.66 c 0.27,0.13 0.49,0.31 0.66,0.53 0.18,0.23 0.31,0.49 0.4,0.79 0.09,0.3 0.14,0.62 0.14,0.96 h -4.51 c 0.04,-0.34 0.12,-0.66 0.24,-0.96 0.12,-0.3 0.28,-0.56 0.48,-0.79 0.2,-0.22 0.44,-0.4 0.72,-0.53 0.28,-0.13 0.59,-0.19 0.95,-0.19 0.36,0 0.67,0.06 0.93,0.19 m -1.19,7.25 c -0.43,-0.11 -0.8,-0.28 -1.12,-0.51 -0.32,-0.23 -0.58,-0.54 -0.78,-0.91 -0.2,-0.38 -0.32,-0.83 -0.36,-1.36 h 7.52 c 0.02,-0.28 0.03,-0.61 0.04,-1.01 0,-1.02 -0.12,-1.9 -0.37,-2.65 -0.25,-0.75 -0.6,-1.36 -1.04,-1.83 -0.45,-0.47 -0.98,-0.82 -1.59,-1.04 -0.61,-0.22 -1.28,-0.33 -2.01,-0.33 -0.73,0 -1.37,0.13 -2.02,0.39 -0.65,0.26 -1.23,0.64 -1.74,1.15 -0.51,0.51 -0.91,1.16 -1.21,1.94 -0.3,0.78 -0.45,1.69 -0.45,2.74 0,1.05 0.16,1.96 0.48,2.7 0.32,0.74 0.75,1.35 1.3,1.81 0.55,0.47 1.18,0.8 1.91,1.01 0.73,0.21 1.5,0.31 2.32,0.31 0.82,0 1.58,-0.07 2.33,-0.21 0.75,-0.14 1.31,-0.29 1.67,-0.45 v -2.24 c -0.61,0.2 -1.21,0.36 -1.8,0.47 -0.59,0.11 -1.16,0.16 -1.7,0.16 -0.5,0 -0.96,-0.05 -1.39,-0.16 m -10.55,-11.98 h 2.95 v -3.04 h -2.95 z m 0.07,14.11 h 2.81 V 217.3 h -2.81 z m -13.78,-2.87 c 0.27,0.75 0.64,1.35 1.09,1.81 0.45,0.46 0.97,0.8 1.54,1.02 0.57,0.22 1.17,0.33 1.79,0.33 0.4,0 0.76,-0.04 1.1,-0.12 0.34,-0.08 0.64,-0.19 0.92,-0.33 0.28,-0.14 0.54,-0.3 0.77,-0.49 0.23,-0.19 0.43,-0.38 0.6,-0.58 h 0.05 l 0.12,1.22 h 2.53 c -0.02,-0.43 -0.03,-0.91 -0.05,-1.46 -0.02,-0.55 -0.02,-1.2 -0.02,-1.96 v -13.74 h -2.81 v 4.77 c 0,0.34 0,0.65 0,0.94 0,0.29 0.01,0.51 0.02,0.67 h -0.02 c -0.18,-0.13 -0.38,-0.25 -0.59,-0.37 -0.21,-0.12 -0.44,-0.23 -0.69,-0.32 -0.24,-0.09 -0.51,-0.17 -0.78,-0.23 -0.28,-0.06 -0.57,-0.08 -0.88,-0.08 -0.66,0 -1.3,0.13 -1.92,0.4 -0.62,0.27 -1.16,0.66 -1.64,1.2 -0.48,0.53 -0.86,1.19 -1.13,1.98 -0.28,0.79 -0.42,1.68 -0.42,2.68 0,1 0.14,1.89 0.41,2.64 m 3.16,-0.05 c -0.45,-0.65 -0.67,-1.55 -0.67,-2.7 0,-0.78 0.09,-1.43 0.27,-1.93 0.18,-0.51 0.4,-0.9 0.66,-1.18 0.26,-0.28 0.56,-0.49 0.88,-0.6 0.32,-0.12 0.63,-0.18 0.92,-0.18 0.46,0 0.89,0.09 1.3,0.27 0.41,0.18 0.78,0.4 1.11,0.67 v 5.45 c -0.12,0.13 -0.26,0.27 -0.43,0.41 -0.17,0.14 -0.37,0.27 -0.59,0.39 -0.22,0.12 -0.46,0.21 -0.71,0.28 -0.25,0.07 -0.51,0.11 -0.79,0.11 -0.86,0 -1.51,-0.34 -1.96,-0.98 m -9.48,3.05 c 0.49,-0.11 0.94,-0.28 1.33,-0.49 0.39,-0.21 0.73,-0.46 1.02,-0.76 0.29,-0.3 0.52,-0.63 0.7,-0.99 0.32,-0.64 0.49,-1.43 0.49,-2.36 v -7.01 h -2.81 v 6.77 c 0,0.66 -0.09,1.18 -0.27,1.55 -0.18,0.39 -0.45,0.68 -0.81,0.86 -0.36,0.19 -0.79,0.28 -1.3,0.28 -0.51,0 -0.9,-0.09 -1.24,-0.26 -0.35,-0.17 -0.62,-0.43 -0.8,-0.78 -0.11,-0.2 -0.19,-0.45 -0.25,-0.73 -0.05,-0.28 -0.08,-0.61 -0.08,-1 v -6.72 h -2.81 v 7.01 c 0,0.52 0.05,0.99 0.15,1.42 0.1,0.43 0.25,0.82 0.46,1.17 0.39,0.66 0.96,1.19 1.72,1.58 0.76,0.39 1.71,0.59 2.87,0.59 0.61,0 1.16,-0.06 1.65,-0.17 m -8.91,-2.46 c -0.29,0.08 -0.59,0.14 -0.91,0.2 -0.32,0.05 -0.64,0.08 -0.97,0.08 -0.7,0 -1.17,-0.18 -1.41,-0.55 -0.13,-0.21 -0.2,-0.54 -0.2,-0.98 v -5.58 h 3.32 v -2.31 h -3.32 v -3.21 h -2.81 v 3.21 h -2.14 v 2.31 h 2.14 v 5.95 c 0,0.72 0.09,1.29 0.27,1.7 0.25,0.59 0.69,1.03 1.3,1.35 0.61,0.31 1.4,0.47 2.36,0.47 0.38,0 0.79,-0.03 1.23,-0.08 0.44,-0.06 0.82,-0.13 1.13,-0.22 v -2.32 z m -13.18,-1.06 c -0.21,0.31 -0.49,0.56 -0.85,0.74 -0.35,0.18 -0.75,0.31 -1.19,0.39 -0.44,0.07 -0.89,0.11 -1.35,0.11 -0.79,0 -1.55,-0.08 -2.3,-0.23 -0.74,-0.15 -1.5,-0.4 -2.29,-0.74 v 2.45 c 0.55,0.31 1.24,0.55 2.08,0.72 0.84,0.17 1.68,0.25 2.54,0.25 0.99,0 1.9,-0.1 2.72,-0.3 0.83,-0.2 1.53,-0.5 2.11,-0.91 0.58,-0.41 1.03,-0.92 1.34,-1.55 0.32,-0.62 0.47,-1.36 0.47,-2.21 0,-0.85 -0.14,-1.51 -0.41,-2.04 -0.28,-0.53 -0.65,-0.97 -1.12,-1.3 -0.47,-0.33 -1.02,-0.59 -1.63,-0.78 -0.61,-0.18 -1.25,-0.35 -1.92,-0.49 -0.43,-0.09 -0.83,-0.18 -1.21,-0.28 -0.38,-0.1 -0.71,-0.24 -1.01,-0.41 -0.29,-0.17 -0.52,-0.39 -0.69,-0.65 -0.17,-0.26 -0.25,-0.59 -0.25,-0.99 0,-0.69 0.26,-1.22 0.78,-1.56 0.52,-0.35 1.25,-0.52 2.21,-0.52 0.66,0 1.37,0.07 2.13,0.22 0.76,0.15 1.54,0.38 2.36,0.7 v -2.49 c -0.62,-0.26 -1.35,-0.47 -2.2,-0.64 -0.85,-0.17 -1.7,-0.25 -2.55,-0.25 -0.85,0 -1.6,0.1 -2.28,0.3 -0.67,0.2 -1.26,0.51 -1.76,0.91 -0.5,0.41 -0.9,0.92 -1.19,1.54 -0.29,0.62 -0.44,1.35 -0.44,2.18 0,0.76 0.13,1.39 0.38,1.9 0.25,0.51 0.59,0.92 1.02,1.25 0.43,0.33 0.92,0.58 1.48,0.77 0.56,0.19 1.15,0.35 1.76,0.48 0.47,0.1 0.91,0.19 1.33,0.29 0.42,0.1 0.8,0.23 1.14,0.39 0.34,0.16 0.61,0.36 0.8,0.61 0.2,0.25 0.3,0.57 0.3,0.98 0,0.46 -0.11,0.84 -0.32,1.15 m -15.76,1.06 c -0.29,0.08 -0.59,0.14 -0.91,0.2 -0.32,0.05 -0.64,0.08 -0.96,0.08 -0.7,0 -1.17,-0.18 -1.41,-0.55 -0.14,-0.21 -0.2,-0.54 -0.2,-0.98 v -5.58 h 3.32 v -2.31 h -3.32 v -3.21 h -2.81 v 3.21 h -2.14 v 2.31 h 2.14 v 5.95 c 0,0.72 0.09,1.29 0.27,1.7 0.25,0.59 0.68,1.03 1.3,1.35 0.61,0.31 1.4,0.47 2.36,0.47 0.38,0 0.79,-0.03 1.23,-0.08 0.44,-0.06 0.82,-0.13 1.13,-0.22 v -2.32 z m -9.44,-0.2 c -0.37,0.15 -0.77,0.28 -1.18,0.38 -0.42,0.1 -0.89,0.15 -1.4,0.15 -0.58,0 -1.08,-0.1 -1.5,-0.29 -0.42,-0.19 -0.77,-0.45 -1.04,-0.76 -0.27,-0.32 -0.48,-0.7 -0.62,-1.14 -0.14,-0.44 -0.21,-0.92 -0.21,-1.43 0,-0.69 0.09,-1.29 0.28,-1.78 0.18,-0.49 0.44,-0.89 0.75,-1.19 0.32,-0.3 0.68,-0.52 1.09,-0.66 0.41,-0.14 0.84,-0.21 1.29,-0.21 0.45,0 0.87,0.05 1.26,0.14 0.39,0.09 0.76,0.21 1.11,0.36 v -2.29 c -0.39,-0.16 -0.82,-0.28 -1.29,-0.37 -0.47,-0.09 -0.97,-0.14 -1.48,-0.14 -0.69,0 -1.38,0.12 -2.09,0.35 -0.71,0.23 -1.34,0.6 -1.91,1.09 -0.57,0.49 -1.02,1.13 -1.38,1.92 -0.36,0.79 -0.53,1.74 -0.53,2.84 0,0.99 0.15,1.85 0.46,2.59 0.31,0.74 0.73,1.35 1.27,1.83 0.54,0.48 1.16,0.84 1.88,1.08 0.72,0.24 1.49,0.36 2.32,0.36 0.57,0 1.11,-0.05 1.62,-0.16 0.51,-0.11 0.95,-0.23 1.3,-0.39 v -2.29 z m -14.29,-11.57 h 2.95 v -3.04 h -2.95 z m 0.07,14.11 h 2.81 v -11.48 h -2.81 z m -6.08,-14.96 v 14.96 h 2.81 v -16.79 c -0.58,-0.17 -1.27,-0.33 -2.09,-0.46 -0.82,-0.13 -1.62,-0.2 -2.4,-0.2 -0.71,0 -1.4,0.09 -2.07,0.27 -0.67,0.18 -1.27,0.47 -1.79,0.86 -0.52,0.4 -0.94,0.9 -1.25,1.52 -0.31,0.62 -0.47,1.37 -0.47,2.26 v 1.05 h -1.94 v 2.31 h 1.94 v 9.17 h 2.81 v -9.17 h 2.83 v -2.31 h -2.83 v -1.1 c 0,-0.5 0.08,-0.91 0.25,-1.24 0.17,-0.33 0.39,-0.59 0.67,-0.79 0.28,-0.19 0.59,-0.33 0.95,-0.41 0.36,-0.08 0.73,-0.12 1.11,-0.12 0.51,0 1,0.06 1.47,0.19 m -18.92,3.48 h -2.32 v 11.48 h 2.81 v -7.9 c 0.39,-0.49 0.83,-0.86 1.33,-1.12 0.5,-0.26 1.03,-0.39 1.57,-0.39 0.41,0 0.76,0.08 1.05,0.24 0.29,0.16 0.5,0.42 0.64,0.78 0.06,0.17 0.11,0.36 0.13,0.58 0.02,0.22 0.04,0.49 0.04,0.79 v 7.01 h 2.81 v -7.45 c 0,-0.38 -0.01,-0.71 -0.04,-1 -0.03,-0.29 -0.08,-0.55 -0.16,-0.8 -0.14,-0.44 -0.34,-0.82 -0.59,-1.14 -0.25,-0.32 -0.54,-0.58 -0.86,-0.78 -0.32,-0.2 -0.68,-0.35 -1.07,-0.44 -0.39,-0.1 -0.8,-0.14 -1.21,-0.14 -0.44,0 -0.86,0.05 -1.25,0.16 -0.39,0.11 -0.75,0.25 -1.07,0.42 -0.32,0.17 -0.61,0.38 -0.86,0.6 -0.25,0.23 -0.46,0.46 -0.63,0.7 h -0.05 l -0.26,-1.6 z m -5.2,3.28 c -0.27,-0.74 -0.65,-1.38 -1.14,-1.91 -0.5,-0.53 -1.1,-0.94 -1.82,-1.23 -0.71,-0.29 -1.52,-0.43 -2.42,-0.43 -0.9,0 -1.67,0.15 -2.38,0.43 -0.71,0.29 -1.32,0.7 -1.82,1.23 -0.5,0.53 -0.89,1.16 -1.15,1.91 -0.27,0.74 -0.4,1.56 -0.4,2.46 0,0.9 0.13,1.72 0.4,2.46 0.26,0.74 0.64,1.38 1.14,1.91 0.5,0.53 1.1,0.94 1.82,1.23 0.71,0.29 1.52,0.43 2.42,0.43 0.9,0 1.67,-0.14 2.38,-0.43 0.71,-0.29 1.32,-0.7 1.82,-1.23 0.5,-0.53 0.89,-1.16 1.15,-1.91 0.27,-0.74 0.4,-1.56 0.4,-2.46 0,-0.9 -0.13,-1.72 -0.4,-2.46 m -2.72,4.07 c -0.14,0.47 -0.34,0.86 -0.59,1.17 -0.25,0.31 -0.55,0.55 -0.9,0.71 -0.35,0.16 -0.73,0.24 -1.15,0.24 -0.42,0 -0.8,-0.08 -1.15,-0.24 -0.35,-0.16 -0.66,-0.4 -0.91,-0.71 -0.26,-0.31 -0.46,-0.7 -0.6,-1.17 -0.14,-0.47 -0.21,-1 -0.21,-1.61 0,-0.61 0.07,-1.14 0.21,-1.61 0.14,-0.47 0.34,-0.86 0.59,-1.17 0.25,-0.31 0.55,-0.55 0.91,-0.71 0.35,-0.16 0.73,-0.24 1.14,-0.24 0.41,0 0.8,0.08 1.16,0.24 0.36,0.16 0.66,0.4 0.91,0.71 0.25,0.32 0.45,0.71 0.59,1.17 0.14,0.46 0.21,1 0.21,1.61 0,0.61 -0.07,1.14 -0.21,1.61 m -12.34,-9.45 c 0.54,0.08 1.13,0.22 1.76,0.41 v -2.46 c -0.48,-0.16 -1.02,-0.29 -1.62,-0.38 -0.6,-0.09 -1.24,-0.14 -1.91,-0.14 -1.31,0 -2.49,0.23 -3.52,0.66 -1.04,0.43 -1.9,1.03 -2.59,1.79 -0.69,0.76 -1.22,1.65 -1.59,2.69 -0.37,1.03 -0.55,2.16 -0.55,3.36 0,1.2 0.17,2.25 0.52,3.23 0.34,0.98 0.86,1.81 1.54,2.51 0.68,0.7 1.53,1.24 2.55,1.62 1.02,0.38 2.2,0.57 3.54,0.57 0.69,0 1.35,-0.05 1.99,-0.14 0.64,-0.09 1.24,-0.22 1.79,-0.37 V 226 c -0.54,0.18 -1.13,0.32 -1.75,0.41 -0.62,0.09 -1.23,0.14 -1.83,0.14 -0.84,0 -1.59,-0.12 -2.24,-0.36 -0.66,-0.24 -1.22,-0.6 -1.68,-1.07 -0.46,-0.47 -0.81,-1.06 -1.05,-1.77 -0.24,-0.71 -0.37,-1.53 -0.37,-2.46 0,-0.93 0.13,-1.77 0.4,-2.5 0.27,-0.73 0.64,-1.35 1.12,-1.84 0.48,-0.5 1.05,-0.88 1.72,-1.14 0.67,-0.26 1.4,-0.39 2.19,-0.39 0.52,0 1.05,0.04 1.6,0.12 m -16.71,1.86 c -0.2,-0.03 -0.45,-0.05 -0.73,-0.05 -0.81,0 -1.51,0.17 -2.09,0.5 -0.58,0.34 -1.04,0.79 -1.37,1.38 h -0.05 l -0.26,-1.6 h -2.32 v 11.48 h 2.81 v -7.69 c 0.36,-0.53 0.86,-0.92 1.51,-1.18 0.65,-0.26 1.41,-0.38 2.27,-0.38 h 0.24 V 217 Z m -9.71,3.52 c -0.27,-0.74 -0.65,-1.38 -1.14,-1.91 -0.5,-0.53 -1.1,-0.94 -1.82,-1.23 -0.72,-0.29 -1.52,-0.43 -2.42,-0.43 -0.9,0 -1.67,0.15 -2.38,0.43 -0.71,0.29 -1.32,0.7 -1.82,1.23 -0.5,0.53 -0.89,1.16 -1.15,1.91 -0.27,0.74 -0.4,1.56 -0.4,2.46 0,0.9 0.13,1.72 0.4,2.46 0.26,0.74 0.64,1.38 1.14,1.91 0.5,0.53 1.1,0.94 1.82,1.23 0.71,0.29 1.52,0.43 2.42,0.43 0.9,0 1.67,-0.14 2.38,-0.43 0.71,-0.29 1.32,-0.7 1.82,-1.23 0.5,-0.53 0.89,-1.16 1.15,-1.91 0.27,-0.74 0.4,-1.56 0.4,-2.46 0,-0.9 -0.13,-1.72 -0.4,-2.46 m -2.72,4.07 c -0.14,0.47 -0.34,0.86 -0.59,1.17 -0.25,0.31 -0.55,0.55 -0.9,0.71 -0.35,0.16 -0.73,0.24 -1.15,0.24 -0.42,0 -0.8,-0.08 -1.15,-0.24 -0.35,-0.16 -0.65,-0.4 -0.91,-0.71 -0.26,-0.31 -0.46,-0.7 -0.6,-1.17 -0.14,-0.47 -0.21,-1 -0.21,-1.61 0,-0.61 0.07,-1.14 0.21,-1.61 0.14,-0.47 0.34,-0.86 0.59,-1.17 0.25,-0.31 0.55,-0.55 0.91,-0.71 0.35,-0.16 0.73,-0.24 1.14,-0.24 0.41,0 0.8,0.08 1.16,0.24 0.36,0.16 0.66,0.4 0.91,0.71 0.25,0.32 0.45,0.71 0.59,1.17 0.14,0.46 0.21,1 0.21,1.61 0,0.61 -0.07,1.14 -0.21,1.61 m -8.6,-12.98 c -0.28,-0.1 -0.62,-0.18 -1.01,-0.24 -0.39,-0.07 -0.78,-0.1 -1.18,-0.1 -0.64,0 -1.23,0.09 -1.78,0.27 -0.55,0.18 -1.02,0.45 -1.42,0.83 -0.4,0.38 -0.72,0.85 -0.94,1.43 -0.22,0.58 -0.34,1.27 -0.34,2.08 v 1.36 h -1.94 v 2.31 h 1.94 v 9.17 h 2.81 v -9.17 h 3.19 v -2.31 h -3.19 v -1.5 c 0,-0.39 0.04,-0.73 0.13,-1.01 0.09,-0.28 0.21,-0.5 0.38,-0.68 0.17,-0.17 0.38,-0.3 0.62,-0.37 0.24,-0.07 0.53,-0.11 0.84,-0.11 0.29,0 0.6,0.03 0.93,0.08 0.33,0.05 0.65,0.12 0.95,0.2 v -2.23 z m -20.24,7.73 c 0.26,0.13 0.49,0.31 0.66,0.53 0.18,0.23 0.31,0.49 0.4,0.79 0.09,0.3 0.14,0.62 0.14,0.96 h -4.51 c 0.04,-0.34 0.12,-0.66 0.24,-0.96 0.12,-0.3 0.28,-0.56 0.48,-0.79 0.2,-0.22 0.44,-0.4 0.72,-0.53 0.28,-0.13 0.59,-0.19 0.95,-0.19 0.36,0 0.67,0.06 0.93,0.19 m -1.19,7.25 c -0.43,-0.11 -0.8,-0.28 -1.12,-0.51 -0.32,-0.23 -0.58,-0.54 -0.78,-0.91 -0.2,-0.38 -0.32,-0.83 -0.35,-1.36 h 7.52 c 0.02,-0.28 0.03,-0.61 0.04,-1.01 0,-1.02 -0.12,-1.9 -0.37,-2.65 -0.25,-0.75 -0.6,-1.36 -1.04,-1.83 -0.45,-0.47 -0.97,-0.82 -1.59,-1.04 -0.61,-0.22 -1.28,-0.33 -2.01,-0.33 -0.73,0 -1.37,0.13 -2.02,0.39 -0.65,0.26 -1.23,0.64 -1.74,1.15 -0.51,0.51 -0.91,1.16 -1.21,1.94 -0.3,0.78 -0.45,1.69 -0.45,2.74 0,1.05 0.16,1.96 0.48,2.7 0.32,0.74 0.75,1.35 1.3,1.81 0.54,0.47 1.18,0.8 1.91,1.01 0.73,0.21 1.5,0.31 2.32,0.31 0.82,0 1.58,-0.07 2.33,-0.21 0.75,-0.14 1.31,-0.29 1.67,-0.45 v -2.24 c -0.61,0.2 -1.21,0.36 -1.8,0.47 -0.59,0.11 -1.16,0.16 -1.71,0.16 -0.5,0 -0.96,-0.05 -1.39,-0.16 m -6.18,-9.59 c -0.21,-0.03 -0.45,-0.05 -0.73,-0.05 -0.81,0 -1.51,0.17 -2.09,0.5 -0.58,0.34 -1.04,0.79 -1.37,1.38 h -0.05 l -0.26,-1.6 h -2.32 v 11.48 h 2.81 V 221 c 0.36,-0.53 0.86,-0.92 1.51,-1.18 0.65,-0.26 1.41,-0.38 2.27,-0.38 h 0.24 v -2.46 z m -9.01,9.38 c -0.29,0.08 -0.59,0.14 -0.91,0.2 -0.32,0.05 -0.64,0.08 -0.97,0.08 -0.7,0 -1.17,-0.18 -1.41,-0.55 -0.13,-0.21 -0.2,-0.54 -0.2,-0.98 v -5.58 h 3.32 v -2.31 h -3.32 v -3.21 h -2.81 v 3.21 h -2.14 v 2.31 h 2.14 v 5.95 c 0,0.72 0.09,1.29 0.27,1.7 0.25,0.59 0.69,1.03 1.3,1.35 0.61,0.31 1.4,0.47 2.36,0.47 0.38,0 0.79,-0.03 1.23,-0.08 0.44,-0.06 0.82,-0.13 1.13,-0.22 v -2.32 z m -18.15,-9.14 h -2.32 v 11.48 h 2.81 v -7.9 c 0.39,-0.49 0.83,-0.86 1.33,-1.12 0.5,-0.26 1.02,-0.39 1.57,-0.39 0.41,0 0.76,0.08 1.05,0.24 0.29,0.16 0.5,0.42 0.65,0.78 0.06,0.17 0.11,0.36 0.13,0.58 0.02,0.22 0.04,0.49 0.04,0.79 v 7.01 h 2.81 v -7.45 c 0,-0.38 -0.01,-0.71 -0.04,-1 -0.03,-0.29 -0.08,-0.55 -0.16,-0.8 -0.14,-0.44 -0.34,-0.82 -0.59,-1.14 -0.25,-0.32 -0.53,-0.58 -0.86,-0.78 -0.32,-0.2 -0.68,-0.35 -1.07,-0.44 -0.39,-0.1 -0.8,-0.14 -1.21,-0.14 -0.44,0 -0.86,0.05 -1.25,0.16 -0.39,0.11 -0.75,0.25 -1.07,0.42 -0.32,0.17 -0.61,0.38 -0.86,0.6 -0.25,0.23 -0.46,0.46 -0.63,0.7 h -0.05 l -0.26,-1.6 z m -9.04,2.1 c 0.26,0.13 0.49,0.31 0.66,0.53 0.18,0.23 0.31,0.49 0.4,0.79 0.09,0.3 0.14,0.62 0.14,0.96 h -4.51 c 0.04,-0.34 0.12,-0.66 0.24,-0.96 0.12,-0.3 0.28,-0.56 0.48,-0.79 0.2,-0.22 0.44,-0.4 0.72,-0.53 0.28,-0.13 0.59,-0.19 0.95,-0.19 0.36,0 0.67,0.06 0.93,0.19 m -1.19,7.25 c -0.43,-0.11 -0.8,-0.28 -1.12,-0.51 -0.32,-0.23 -0.58,-0.54 -0.78,-0.91 -0.2,-0.38 -0.32,-0.83 -0.35,-1.36 h 7.52 c 0.02,-0.28 0.03,-0.61 0.04,-1.01 0,-1.02 -0.12,-1.9 -0.37,-2.65 -0.25,-0.75 -0.6,-1.36 -1.04,-1.83 -0.45,-0.47 -0.98,-0.82 -1.59,-1.04 -0.61,-0.22 -1.28,-0.33 -2.01,-0.33 -0.73,0 -1.37,0.13 -2.02,0.39 -0.65,0.26 -1.23,0.64 -1.74,1.15 -0.51,0.51 -0.91,1.16 -1.21,1.94 -0.3,0.78 -0.45,1.69 -0.45,2.74 0,1.05 0.16,1.96 0.48,2.7 0.32,0.74 0.75,1.35 1.3,1.81 0.54,0.47 1.18,0.8 1.91,1.01 0.73,0.21 1.5,0.31 2.32,0.31 0.82,0 1.58,-0.07 2.33,-0.21 0.75,-0.14 1.31,-0.29 1.67,-0.45 v -2.24 c -0.61,0.2 -1.21,0.36 -1.8,0.47 -0.59,0.11 -1.16,0.16 -1.71,0.16 -0.5,0 -0.96,-0.05 -1.39,-0.16 m -9.04,-11.45 c 0.54,0.08 1.13,0.22 1.76,0.41 v -2.46 c -0.48,-0.16 -1.02,-0.29 -1.62,-0.38 -0.6,-0.09 -1.24,-0.14 -1.91,-0.14 -1.31,0 -2.49,0.23 -3.52,0.66 -1.04,0.43 -1.9,1.03 -2.59,1.79 -0.69,0.76 -1.22,1.65 -1.59,2.69 -0.37,1.03 -0.55,2.16 -0.55,3.36 0,1.2 0.17,2.25 0.51,3.23 0.34,0.98 0.86,1.81 1.54,2.51 0.68,0.7 1.53,1.24 2.55,1.62 1.02,0.38 2.2,0.57 3.54,0.57 0.69,0 1.35,-0.05 1.99,-0.14 0.64,-0.09 1.24,-0.22 1.79,-0.37 v -2.5 c -0.54,0.18 -1.13,0.32 -1.75,0.41 -0.62,0.09 -1.24,0.14 -1.84,0.14 -0.84,0 -1.59,-0.12 -2.24,-0.36 -0.66,-0.24 -1.22,-0.6 -1.68,-1.07 -0.46,-0.47 -0.81,-1.06 -1.05,-1.77 -0.24,-0.71 -0.37,-1.53 -0.37,-2.46 0,-0.93 0.13,-1.77 0.4,-2.5 0.27,-0.73 0.64,-1.35 1.12,-1.84 0.48,-0.5 1.05,-0.88 1.72,-1.14 0.67,-0.26 1.4,-0.39 2.18,-0.39 0.52,0 1.05,0.04 1.6,0.12 m -18.25,-3.58 h -2.81 v 17.15 h 2.81 z m -8.88,14.01 c -0.12,0.13 -0.26,0.27 -0.43,0.41 -0.17,0.14 -0.36,0.27 -0.57,0.39 -0.21,0.11 -0.45,0.21 -0.7,0.28 -0.25,0.08 -0.52,0.11 -0.81,0.11 -0.23,0 -0.45,-0.03 -0.65,-0.1 -0.21,-0.06 -0.38,-0.16 -0.54,-0.28 -0.15,-0.13 -0.28,-0.29 -0.37,-0.48 -0.09,-0.19 -0.14,-0.42 -0.14,-0.68 0,-0.56 0.2,-0.98 0.6,-1.25 0.4,-0.27 0.94,-0.41 1.63,-0.41 0.35,0 0.71,0.03 1.05,0.08 0.35,0.05 0.66,0.11 0.92,0.17 v 1.75 z m 0.34,3.14 h 2.53 c -0.02,-0.43 -0.03,-0.91 -0.05,-1.46 -0.02,-0.55 -0.02,-1.2 -0.02,-1.96 v -4.32 c 0,-0.58 -0.1,-1.11 -0.31,-1.6 -0.21,-0.49 -0.52,-0.91 -0.95,-1.27 -0.42,-0.36 -0.95,-0.64 -1.58,-0.85 -0.63,-0.2 -1.36,-0.31 -2.2,-0.31 -0.71,0 -1.39,0.08 -2.04,0.21 -0.65,0.13 -1.26,0.33 -1.84,0.58 v 2.19 c 0.66,-0.25 1.28,-0.44 1.85,-0.57 0.57,-0.13 1.14,-0.19 1.71,-0.19 0.46,0 0.86,0.06 1.18,0.17 0.32,0.11 0.59,0.27 0.79,0.46 0.2,0.19 0.35,0.41 0.44,0.66 0.09,0.25 0.14,0.51 0.14,0.78 v 0.46 c -0.32,-0.09 -0.68,-0.16 -1.1,-0.22 -0.42,-0.06 -0.88,-0.09 -1.37,-0.09 -0.68,0 -1.3,0.09 -1.86,0.27 -0.56,0.18 -1.04,0.44 -1.44,0.78 -0.4,0.34 -0.72,0.75 -0.94,1.24 -0.22,0.49 -0.34,1.04 -0.34,1.66 0,0.56 0.1,1.07 0.29,1.52 0.19,0.45 0.46,0.84 0.8,1.16 0.34,0.32 0.75,0.56 1.22,0.73 0.47,0.17 0.98,0.25 1.53,0.25 0.4,0 0.78,-0.05 1.12,-0.14 0.35,-0.09 0.66,-0.22 0.95,-0.37 0.29,-0.15 0.54,-0.32 0.76,-0.49 0.22,-0.17 0.41,-0.34 0.57,-0.51 h 0.05 l 0.12,1.22 z m -18,-11.48 h -2.32 v 11.48 h 2.81 v -7.9 c 0.39,-0.49 0.83,-0.86 1.33,-1.12 0.5,-0.26 1.02,-0.39 1.57,-0.39 0.41,0 0.76,0.08 1.05,0.24 0.29,0.16 0.5,0.42 0.65,0.78 0.06,0.17 0.11,0.36 0.13,0.58 0.02,0.22 0.04,0.49 0.04,0.79 v 7.01 h 2.81 v -7.45 c 0,-0.38 -0.01,-0.71 -0.04,-1 -0.03,-0.29 -0.08,-0.55 -0.16,-0.8 -0.14,-0.44 -0.34,-0.82 -0.59,-1.14 -0.25,-0.32 -0.54,-0.58 -0.86,-0.78 -0.32,-0.2 -0.68,-0.35 -1.07,-0.44 -0.39,-0.1 -0.8,-0.14 -1.21,-0.14 -0.44,0 -0.86,0.05 -1.25,0.16 -0.39,0.11 -0.75,0.25 -1.07,0.42 -0.32,0.17 -0.61,0.38 -0.86,0.6 -0.25,0.23 -0.46,0.46 -0.63,0.7 h -0.05 l -0.26,-1.6 z m -5.21,3.28 c -0.26,-0.74 -0.65,-1.38 -1.14,-1.91 -0.5,-0.53 -1.1,-0.94 -1.82,-1.23 -0.72,-0.29 -1.52,-0.43 -2.42,-0.43 -0.9,0 -1.67,0.15 -2.38,0.43 -0.71,0.28 -1.32,0.7 -1.82,1.23 -0.5,0.53 -0.89,1.16 -1.15,1.91 -0.27,0.74 -0.4,1.56 -0.4,2.46 0,0.9 0.13,1.72 0.4,2.46 0.26,0.74 0.65,1.38 1.14,1.91 0.5,0.53 1.1,0.94 1.82,1.23 0.71,0.29 1.52,0.43 2.42,0.43 0.9,0 1.67,-0.14 2.38,-0.43 0.71,-0.29 1.32,-0.7 1.82,-1.23 0.5,-0.53 0.89,-1.16 1.16,-1.91 0.27,-0.74 0.4,-1.56 0.4,-2.46 0,-0.9 -0.13,-1.72 -0.4,-2.46 m -2.72,4.07 c -0.14,0.47 -0.34,0.86 -0.59,1.17 -0.25,0.31 -0.55,0.55 -0.9,0.71 -0.35,0.16 -0.73,0.24 -1.15,0.24 -0.42,0 -0.8,-0.08 -1.15,-0.24 -0.35,-0.16 -0.65,-0.4 -0.91,-0.71 -0.26,-0.31 -0.46,-0.7 -0.6,-1.17 -0.14,-0.47 -0.21,-1 -0.21,-1.61 0,-0.61 0.07,-1.14 0.21,-1.61 0.14,-0.47 0.34,-0.86 0.59,-1.17 0.25,-0.32 0.55,-0.55 0.91,-0.71 0.35,-0.16 0.73,-0.24 1.14,-0.24 0.41,0 0.81,0.08 1.16,0.24 0.36,0.16 0.66,0.4 0.91,0.71 0.25,0.31 0.45,0.71 0.59,1.17 0.14,0.47 0.21,1 0.21,1.61 0,0.61 -0.07,1.14 -0.21,1.61 m -13.86,-9.98 h 2.95 v -3.04 h -2.95 z m 0.07,14.11 h 2.81 v -11.48 h -2.81 z m -2.26,-2.33 c -0.28,0.08 -0.59,0.14 -0.91,0.2 -0.32,0.05 -0.64,0.08 -0.96,0.08 -0.7,0 -1.17,-0.18 -1.41,-0.55 -0.13,-0.21 -0.2,-0.54 -0.2,-0.98 v -5.58 h 3.32 v -2.31 h -3.32 v -3.21 h -2.81 v 3.21 h -2.14 v 2.31 h 2.14 v 5.95 c 0,0.72 0.09,1.29 0.27,1.7 0.25,0.59 0.69,1.03 1.3,1.35 0.61,0.31 1.4,0.47 2.36,0.47 0.38,0 0.79,-0.03 1.23,-0.08 0.44,-0.06 0.82,-0.13 1.13,-0.22 v -2.32 z m -12.97,-0.8 c -0.12,0.13 -0.26,0.27 -0.43,0.41 -0.17,0.14 -0.36,0.27 -0.57,0.39 -0.21,0.11 -0.45,0.21 -0.7,0.28 -0.25,0.08 -0.52,0.11 -0.81,0.11 -0.23,0 -0.45,-0.03 -0.65,-0.1 -0.21,-0.06 -0.38,-0.16 -0.54,-0.28 -0.15,-0.13 -0.28,-0.29 -0.37,-0.48 -0.09,-0.19 -0.14,-0.42 -0.14,-0.68 0,-0.56 0.2,-0.98 0.6,-1.25 0.4,-0.27 0.94,-0.41 1.63,-0.41 0.36,0 0.71,0.03 1.05,0.08 0.35,0.05 0.66,0.11 0.92,0.17 v 1.75 z m 0.34,3.14 h 2.53 c -0.02,-0.43 -0.03,-0.91 -0.05,-1.46 -0.02,-0.55 -0.02,-1.2 -0.02,-1.96 v -4.32 c 0,-0.58 -0.11,-1.11 -0.31,-1.6 -0.21,-0.49 -0.52,-0.91 -0.95,-1.27 -0.42,-0.36 -0.95,-0.64 -1.58,-0.85 -0.63,-0.2 -1.36,-0.31 -2.2,-0.31 -0.71,0 -1.39,0.08 -2.04,0.21 -0.65,0.13 -1.26,0.33 -1.84,0.58 v 2.19 c 0.66,-0.25 1.28,-0.44 1.85,-0.57 0.57,-0.13 1.14,-0.19 1.71,-0.19 0.47,0 0.86,0.06 1.18,0.17 0.32,0.11 0.59,0.27 0.79,0.46 0.2,0.19 0.35,0.41 0.44,0.66 0.09,0.25 0.14,0.51 0.14,0.78 v 0.46 c -0.32,-0.09 -0.68,-0.16 -1.1,-0.22 -0.42,-0.06 -0.88,-0.09 -1.37,-0.09 -0.68,0 -1.3,0.09 -1.86,0.27 -0.56,0.18 -1.04,0.44 -1.44,0.78 -0.4,0.34 -0.72,0.75 -0.94,1.24 -0.23,0.49 -0.34,1.04 -0.34,1.66 0,0.56 0.1,1.07 0.29,1.52 0.19,0.45 0.46,0.84 0.8,1.16 0.34,0.32 0.75,0.56 1.22,0.73 0.47,0.17 0.98,0.25 1.53,0.25 0.4,0 0.78,-0.05 1.12,-0.14 0.35,-0.09 0.66,-0.22 0.95,-0.37 0.29,-0.15 0.54,-0.32 0.76,-0.49 0.22,-0.17 0.41,-0.34 0.57,-0.51 h 0.05 l 0.12,1.22 z m -18,-11.48 h -2.32 v 11.48 h 2.81 v -7.9 c 0.39,-0.49 0.83,-0.86 1.33,-1.12 0.5,-0.26 1.03,-0.39 1.57,-0.39 0.41,0 0.76,0.08 1.05,0.24 0.29,0.16 0.5,0.42 0.64,0.78 0.06,0.17 0.11,0.36 0.13,0.58 0.02,0.22 0.04,0.49 0.04,0.79 v 7.01 h 2.81 v -7.45 c 0,-0.38 -0.01,-0.71 -0.04,-1 -0.03,-0.29 -0.08,-0.55 -0.16,-0.8 -0.14,-0.44 -0.34,-0.82 -0.59,-1.14 -0.25,-0.32 -0.53,-0.58 -0.86,-0.78 -0.32,-0.2 -0.68,-0.35 -1.07,-0.44 -0.39,-0.1 -0.8,-0.14 -1.21,-0.14 -0.44,0 -0.86,0.05 -1.25,0.16 -0.39,0.11 -0.75,0.25 -1.07,0.42 -0.32,0.17 -0.61,0.38 -0.86,0.6 -0.25,0.23 -0.46,0.46 -0.63,0.7 h -0.05 l -0.26,-1.6 z m -3.98,-0.24 c -0.21,-0.03 -0.45,-0.05 -0.74,-0.05 -0.81,0 -1.51,0.17 -2.09,0.5 -0.58,0.34 -1.04,0.79 -1.37,1.38 h -0.05 l -0.26,-1.6 h -2.32 v 11.48 h 2.81 v -7.69 c 0.36,-0.53 0.86,-0.92 1.51,-1.18 0.65,-0.26 1.41,-0.38 2.27,-0.38 h 0.24 z m -13.539997,2.34 c 0.27,0.13 0.49,0.31 0.66,0.53 0.18,0.23 0.31,0.49 0.4,0.79 0.09,0.3 0.14,0.62 0.14,0.96 h -4.51 c 0.04,-0.34 0.12,-0.66 0.24,-0.96 0.12,-0.3 0.28,-0.56 0.48,-0.79 0.2,-0.22 0.44,-0.4 0.72,-0.53 0.28,-0.13 0.59,-0.19 0.95,-0.19 0.36,0 0.67,0.06 0.93,0.19 m -1.19,7.25 c -0.43,-0.11 -0.8,-0.28 -1.12,-0.51 -0.32,-0.23 -0.58,-0.54 -0.78,-0.91 -0.2,-0.38 -0.32,-0.83 -0.35,-1.36 h 7.519997 c 0.02,-0.28 0.03,-0.61 0.04,-1.01 0,-1.02 -0.12,-1.9 -0.37,-2.65 -0.25,-0.75 -0.6,-1.36 -1.04,-1.83 -0.449997,-0.47 -0.979997,-0.82 -1.589997,-1.04 -0.61,-0.22 -1.28,-0.33 -2.01,-0.33 -0.73,0 -1.37,0.13 -2.02,0.39 -0.65,0.26 -1.23,0.64 -1.74,1.15 -0.51,0.51 -0.91,1.16 -1.21,1.94 -0.3,0.78 -0.45,1.69 -0.45,2.74 0,1.05 0.16,1.96 0.48,2.7 0.32,0.74 0.75,1.35 1.3,1.81 0.55,0.47 1.18,0.8 1.91,1.01 0.73,0.21 1.5,0.31 2.32,0.31 0.82,0 1.58,-0.07 2.33,-0.21 0.749997,-0.14 1.309997,-0.29 1.669997,-0.45 v -2.24 c -0.61,0.2 -1.21,0.36 -1.799997,0.47 -0.59,0.11 -1.16,0.16 -1.7,0.16 -0.5,0 -0.96,-0.05 -1.39,-0.16 m -6.72,-0.21 c -0.28,0.08 -0.59,0.14 -0.91,0.2 -0.32,0.05 -0.64,0.08 -0.96,0.08 -0.7,0 -1.17,-0.18 -1.41,-0.55 -0.14,-0.21 -0.2,-0.54 -0.2,-0.98 v -5.58 h 3.32 v -2.31 h -3.32 v -3.21 h -2.81 v 3.21 h -2.14 v 2.31 h 2.14 v 5.95 c 0,0.72 0.09,1.29 0.27,1.7 0.25,0.59 0.68,1.03 1.3,1.35 0.61,0.31 1.4,0.47 2.36,0.47 0.38,0 0.79,-0.03 1.23,-0.08 0.44,-0.06 0.82,-0.13 1.13,-0.22 v -2.32 z m -18.14,-9.14 h -2.32 v 11.48 h 2.81 v -7.9 c 0.39,-0.49 0.83,-0.86 1.33,-1.12 0.5,-0.26 1.02,-0.39 1.57,-0.39 0.41,0 0.76,0.08 1.05,0.24 0.29,0.16 0.5,0.42 0.65,0.78 0.06,0.17 0.11,0.36 0.13,0.58 0.02,0.22 0.04,0.49 0.04,0.79 v 7.01 h 2.81 v -7.45 c 0,-0.38 -0.01,-0.71 -0.04,-1 -0.03,-0.29 -0.08,-0.55 -0.16,-0.8 -0.14,-0.44 -0.34,-0.82 -0.59,-1.14 -0.25,-0.32 -0.53,-0.58 -0.86,-0.78 -0.32,-0.2 -0.68,-0.35 -1.07,-0.44 -0.39,-0.1 -0.79,-0.14 -1.21,-0.14 -0.44,0 -0.86,0.05 -1.25,0.16 -0.39,0.11 -0.75,0.25 -1.07,0.42 -0.32,0.17 -0.61,0.38 -0.86,0.6 -0.25,0.23 -0.46,0.46 -0.63,0.7 h -0.05 l -0.26,-1.6 z m -5.76,-4.37 h -2.9 v 15.85 h 2.9 z m -20.72,4.37 h -2.32 v 11.48 h 2.81 v -7.9 c 0.39,-0.49 0.83,-0.86 1.33,-1.12 0.5,-0.26 1.03,-0.39 1.57,-0.39 0.41,0 0.76,0.08 1.05,0.24 0.29,0.16 0.5,0.42 0.65,0.78 0.06,0.17 0.11,0.36 0.13,0.58 0.02,0.22 0.04,0.49 0.04,0.79 v 7.01 h 2.81 v -7.45 c 0,-0.38 -0.01,-0.71 -0.04,-1 -0.03,-0.29 -0.08,-0.55 -0.16,-0.8 -0.14,-0.44 -0.34,-0.82 -0.59,-1.14 -0.25,-0.32 -0.53,-0.58 -0.86,-0.78 -0.32,-0.2 -0.68,-0.35 -1.07,-0.44 -0.39,-0.1 -0.8,-0.14 -1.21,-0.14 -0.44,0 -0.86,0.05 -1.25,0.16 -0.39,0.11 -0.75,0.25 -1.07,0.42 -0.32,0.17 -0.61,0.38 -0.86,0.6 -0.25,0.23 -0.46,0.46 -0.63,0.7 h -0.05 l -0.26,-1.6 z m -13.45,0 h -2.32 v 11.48 h 2.81 v -7.9 c 0.39,-0.49 0.83,-0.86 1.33,-1.12 0.5,-0.26 1.02,-0.39 1.57,-0.39 0.41,0 0.76,0.08 1.05,0.24 0.29,0.16 0.5,0.42 0.65,0.78 0.06,0.17 0.11,0.36 0.13,0.58 0.02,0.22 0.03,0.49 0.03,0.79 v 7.01 h 2.81 v -7.45 c 0,-0.38 -0.01,-0.71 -0.04,-1 -0.03,-0.29 -0.08,-0.55 -0.16,-0.8 -0.14,-0.44 -0.34,-0.82 -0.59,-1.14 -0.25,-0.32 -0.53,-0.58 -0.86,-0.78 -0.32,-0.2 -0.68,-0.35 -1.07,-0.44 -0.39,-0.1 -0.8,-0.14 -1.21,-0.14 -0.44,0 -0.86,0.05 -1.25,0.16 -0.39,0.11 -0.75,0.25 -1.07,0.42 -0.32,0.17 -0.61,0.38 -0.87,0.6 -0.25,0.23 -0.46,0.46 -0.63,0.7 h -0.05 z m -5.21,3.28 c -0.26,-0.74 -0.65,-1.38 -1.14,-1.91 -0.5,-0.53 -1.1,-0.94 -1.82,-1.23 -0.71,-0.29 -1.52,-0.43 -2.42,-0.43 -0.9,0 -1.67,0.15 -2.38,0.43 -0.71,0.29 -1.32,0.7 -1.82,1.23 -0.5,0.53 -0.89,1.16 -1.15,1.91 -0.27,0.74 -0.4,1.56 -0.4,2.46 0,0.9 0.13,1.72 0.4,2.46 0.26,0.74 0.64,1.38 1.14,1.91 0.5,0.53 1.1,0.94 1.82,1.23 0.71,0.29 1.52,0.43 2.42,0.43 0.9,0 1.67,-0.14 2.38,-0.43 0.71,-0.29 1.32,-0.7 1.82,-1.23 0.5,-0.53 0.89,-1.16 1.15,-1.91 0.27,-0.74 0.4,-1.56 0.4,-2.46 0,-0.9 -0.13,-1.72 -0.4,-2.46 m -2.72,4.07 c -0.14,0.47 -0.34,0.86 -0.59,1.17 -0.25,0.31 -0.55,0.55 -0.9,0.71 -0.35,0.16 -0.73,0.24 -1.15,0.24 -0.42,0 -0.8,-0.08 -1.16,-0.24 -0.35,-0.16 -0.66,-0.4 -0.91,-0.71 -0.26,-0.31 -0.46,-0.7 -0.6,-1.17 -0.14,-0.47 -0.21,-1 -0.21,-1.61 0,-0.61 0.07,-1.14 0.21,-1.61 0.14,-0.47 0.34,-0.86 0.59,-1.17 0.25,-0.32 0.56,-0.55 0.91,-0.71 0.35,-0.16 0.73,-0.24 1.14,-0.24 0.41,0 0.81,0.08 1.16,0.24 0.35,0.16 0.66,0.4 0.91,0.71 0.25,0.32 0.45,0.71 0.59,1.17 0.14,0.46 0.21,1 0.21,1.61 0,0.61 -0.07,1.14 -0.21,1.61 m -19.6799997,-5.2 v -4.1 h 2.38 c 0.42,0 0.77,0.01 1.05,0.04 0.28,0.03 0.53,0.07 0.75,0.14 0.51,0.16 0.88,0.4 1.09,0.73 0.21,0.33 0.32,0.7 0.32,1.12 0,0.42 -0.09,0.76 -0.28,1.08 -0.19,0.32 -0.5,0.57 -0.93,0.75 -0.39,0.16 -0.98,0.24 -1.77,0.24 h -2.62 z m 2.75,2.43 c 0.48,0 0.88,0.02 1.18,0.05 0.31,0.03 0.58,0.08 0.8,0.15 0.52,0.16 0.9,0.41 1.15,0.75 0.2399997,0.33 0.3699997,0.72 0.3699997,1.16 0,0.25 -0.03,0.49 -0.11,0.72 -0.08,0.23 -0.1899997,0.43 -0.3599997,0.62 -0.17,0.19 -0.38,0.35 -0.65,0.5 -0.27,0.15 -0.6,0.26 -1.01,0.35 -0.26,0.06 -0.57,0.11 -0.93,0.14 -0.36,0.03 -0.8,0.04 -1.3,0.04 h -1.89 v -4.47 h 2.75 z m 5.6399997,-5.89 c -0.12,-0.38 -0.31,-0.75 -0.57,-1.09 -0.26,-0.34 -0.58,-0.66 -0.98,-0.94 -0.39,-0.28 -0.8599997,-0.51 -1.3999997,-0.68 -0.72,-0.24 -1.67,-0.36 -2.84,-0.36 h -5.51 v 15.85 h 4.61 c 0.43,0 0.82,0 1.17,-0.02 0.35,-0.01 0.66,-0.03 0.95,-0.06 0.28,-0.03 0.54,-0.06 0.78,-0.1 0.23,-0.04 0.45,-0.08 0.64,-0.13 0.78,-0.2 1.4299997,-0.48 1.9399997,-0.83 0.51,-0.35 0.92,-0.73 1.23,-1.14 0.31,-0.41 0.52,-0.84 0.64,-1.28 0.12,-0.44 0.18,-0.86 0.18,-1.24 0,-0.45 -0.06,-0.86 -0.2,-1.22 -0.13,-0.36 -0.31,-0.69 -0.55,-0.98 -0.23,-0.29 -0.51,-0.54 -0.84,-0.75 -0.33,-0.21 -0.69,-0.38 -1.08,-0.52 v -0.05 c 0.71,-0.38 1.22,-0.86 1.53,-1.43 0.31,-0.57 0.46,-1.2 0.46,-1.89 0,-0.39 -0.06,-0.77 -0.18,-1.16"
     id="path16" />
  <rect
     class="cls-1"
     x="0"
     y="0"
     width="480.23001"
     height="229.08"
     id="rect18" />
</svg>
