<?xml version="1.0" encoding="UTF-8"?>
<svg id="Ebene_1" data-name="Ebene 1" xmlns="http://www.w3.org/2000/svg" xmlns:xlink="http://www.w3.org/1999/xlink" version="1.1" viewBox="0 0 1091.5 848.9">
  <defs>
    <style>
      .cls-1 {
        stroke: #873121;
        stroke-width: 2px;
      }

      .cls-1, .cls-2, .cls-3, .cls-4 {
        fill: none;
      }

      .cls-1, .cls-3, .cls-4 {
        stroke-miterlimit: 10;
      }

      .cls-5 {
        fill: #134251;
      }

      .cls-5, .cls-6, .cls-2, .cls-7, .cls-8, .cls-9, .cls-10, .cls-11, .cls-12, .cls-13, .cls-14, .cls-15, .cls-16, .cls-17, .cls-18, .cls-19, .cls-20, .cls-21, .cls-22, .cls-23, .cls-24, .cls-25, .cls-26, .cls-27 {
        stroke-width: 0px;
      }

      .cls-6 {
        fill: #e95f14;
      }

      .cls-28 {
        clip-path: url(#clippath);
      }

      .cls-7 {
        fill: #e3d3e0;
      }

      .cls-29, .cls-30 {
        mix-blend-mode: multiply;
      }

      .cls-8 {
        fill: #ece1eb;
      }

      .cls-31 {
        clip-path: url(#clippath-1);
      }

      .cls-32 {
        clip-path: url(#clippath-2);
      }

      .cls-9 {
        fill: #f9b34c;
      }

      .cls-10 {
        fill: #6f7d68;
      }

      .cls-11 {
        fill: #f7a30d;
      }

      .cls-12 {
        fill: #0d9092;
      }

      .cls-3 {
        stroke: #042323;
        stroke-width: .2px;
      }

      .cls-13 {
        fill: #e85812;
      }

      .cls-33 {
        opacity: .3;
      }

      .cls-14 {
        fill: #008083;
      }

      .cls-15 {
        fill: #e3d1c0;
      }

      .cls-4 {
        stroke: #f8ab37;
      }

      .cls-16 {
        fill: #f8ab37;
      }

      .cls-17 {
        fill: #003548;
      }

      .cls-34 {
        isolation: isolate;
      }

      .cls-18 {
        fill: #8a967e;
      }

      .cls-19 {
        fill: #e55009;
      }

      .cls-20 {
        fill: #00767b;
      }

      .cls-21 {
        fill: #09868d;
      }

      .cls-22 {
        fill: #f79a24;
      }

      .cls-23 {
        fill: #fff;
      }

      .cls-30 {
        opacity: .5;
      }

      .cls-24 {
        fill: #1e9ea0;
      }

      .cls-25 {
        fill: #f1e9f1;
      }

      .cls-26 {
        fill: #006365;
      }

      .cls-27 {
        fill: #e19633;
      }
    </style>
    <clipPath id="clippath">
      <rect class="cls-2" x="-8.5" y="-39.4" width="1650" height="927.7"/>
    </clipPath>
    <clipPath id="clippath-1">
      <path class="cls-2" d="M751,105.4c-9.1-12.6-4-24.1,11.3-25.7,2.8-.3,5.8-.2,8.8.1.4,0,.8-.1,1.3-.2,11.2-1.2,25.7,5.3,32.3,14.5,1.8,2.6,2.9,5.1,3.2,7.3,7.2,11.8,2,22.2-12.6,23.8-15.4,1.6-35.2-7.3-44.3-19.8h0Z"/>
    </clipPath>
    <clipPath id="clippath-2">
      <rect class="cls-2" x="2047.5" y="482.6" width="778" height="437.4"/>
    </clipPath>
  </defs>
  <g class="cls-34">
    <g id="Ebene_1-2" data-name="Ebene 1">
      <g class="cls-28">
        <g class="cls-33">
          <g>
            <line class="cls-3" x1="-1561" y1="454.5" x2="892.5" y2="-961.2"/>
            <line class="cls-3" x1="-1468.9" y1="508.7" x2="984.6" y2="-907"/>
            <line class="cls-3" x1="-1376.9" y1="562.9" x2="1076.7" y2="-852.7"/>
            <line class="cls-3" x1="-1284.8" y1="617.1" x2="1168.7" y2="-798.5"/>
            <line class="cls-3" x1="-1192.8" y1="671.4" x2="1260.8" y2="-744.3"/>
            <line class="cls-3" x1="-1100.7" y1="725.6" x2="1352.8" y2="-690.1"/>
            <line class="cls-3" x1="-1008.6" y1="779.8" x2="1444.9" y2="-635.8"/>
            <line class="cls-3" x1="-916.6" y1="834" x2="1537" y2="-581.6"/>
            <line class="cls-3" x1="-824.5" y1="888.3" x2="1629" y2="-527.4"/>
            <line class="cls-3" x1="-732.5" y1="942.5" x2="1721.1" y2="-473.2"/>
            <line class="cls-3" x1="-640.4" y1="996.7" x2="1813.1" y2="-418.9"/>
            <line class="cls-3" x1="-548.3" y1="1050.9" x2="1905.2" y2="-364.7"/>
            <line class="cls-3" x1="-456.3" y1="1105.1" x2="1997.3" y2="-310.5"/>
            <line class="cls-3" x1="-364.2" y1="1159.4" x2="2089.3" y2="-256.3"/>
            <line class="cls-3" x1="-272.2" y1="1213.6" x2="2181.4" y2="-202.1"/>
            <line class="cls-3" x1="-180.1" y1="1267.8" x2="2273.5" y2="-147.8"/>
            <line class="cls-3" x1="-88" y1="1322" x2="2365.5" y2="-93.6"/>
            <line class="cls-3" x1="4" y1="1376.3" x2="2457.6" y2="-39.4"/>
            <line class="cls-3" x1="96.1" y1="1430.5" x2="2549.6" y2="14.8"/>
            <line class="cls-3" x1="188.1" y1="1484.7" x2="2641.7" y2="69.1"/>
            <line class="cls-3" x1="280.2" y1="1538.9" x2="2733.8" y2="123.3"/>
            <line class="cls-3" x1="372.3" y1="1593.2" x2="2825.8" y2="177.5"/>
            <line class="cls-3" x1="464.3" y1="1647.4" x2="2917.9" y2="231.7"/>
            <line class="cls-3" x1="556.4" y1="1701.6" x2="3009.9" y2="286"/>
            <line class="cls-3" x1="648.4" y1="1755.8" x2="3102" y2="340.2"/>
            <line class="cls-3" x1="740.5" y1="1810.1" x2="3194.1" y2="394.4"/>
          </g>
          <g>
            <line class="cls-3" x1="3194.1" y1="454.5" x2="740.5" y2="-961.2"/>
            <line class="cls-3" x1="3102" y1="508.7" x2="648.4" y2="-907"/>
            <line class="cls-3" x1="3009.9" y1="562.9" x2="556.4" y2="-852.7"/>
            <line class="cls-3" x1="2917.9" y1="617.1" x2="464.3" y2="-798.5"/>
            <line class="cls-3" x1="2825.8" y1="671.4" x2="372.3" y2="-744.3"/>
            <line class="cls-3" x1="2733.8" y1="725.6" x2="280.2" y2="-690.1"/>
            <line class="cls-3" x1="2641.7" y1="779.8" x2="188.1" y2="-635.8"/>
            <line class="cls-3" x1="2549.6" y1="834" x2="96.1" y2="-581.6"/>
            <line class="cls-3" x1="2457.6" y1="888.3" x2="4" y2="-527.4"/>
            <line class="cls-3" x1="2365.5" y1="942.5" x2="-88" y2="-473.2"/>
            <line class="cls-3" x1="2273.5" y1="996.7" x2="-180.1" y2="-418.9"/>
            <line class="cls-3" x1="2181.4" y1="1050.9" x2="-272.2" y2="-364.7"/>
            <line class="cls-3" x1="2089.3" y1="1105.1" x2="-364.2" y2="-310.5"/>
            <line class="cls-3" x1="1997.3" y1="1159.4" x2="-456.3" y2="-256.3"/>
            <line class="cls-3" x1="1905.2" y1="1213.6" x2="-548.3" y2="-202.1"/>
            <line class="cls-3" x1="1813.1" y1="1267.8" x2="-640.4" y2="-147.8"/>
            <line class="cls-3" x1="1721.1" y1="1322" x2="-732.5" y2="-93.6"/>
            <line class="cls-3" x1="1629" y1="1376.3" x2="-824.5" y2="-39.4"/>
            <line class="cls-3" x1="1537" y1="1430.5" x2="-916.6" y2="14.8"/>
            <line class="cls-3" x1="1444.9" y1="1484.7" x2="-1008.6" y2="69.1"/>
            <line class="cls-3" x1="1352.8" y1="1538.9" x2="-1100.7" y2="123.3"/>
            <line class="cls-3" x1="1260.8" y1="1593.2" x2="-1192.8" y2="177.5"/>
            <line class="cls-3" x1="1168.7" y1="1647.4" x2="-1284.8" y2="231.7"/>
            <line class="cls-3" x1="1076.7" y1="1701.6" x2="-1376.9" y2="286"/>
            <line class="cls-3" x1="984.6" y1="1755.8" x2="-1468.9" y2="340.2"/>
            <line class="cls-3" x1="892.5" y1="1810.1" x2="-1561" y2="394.4"/>
          </g>
        </g>
      </g>
      <g>
        <g class="cls-29">
          <image class="cls-34" width="325" height="225" transform="translate(705.5 549.4)" xlink:href="Hero_desktop2-1.png"/>
        </g>
        <g>
          <path class="cls-6" d="M982.9,650.2c-1-.9-2.3-1.6-3.6-2.1l-12.2-4.4c-.4-.2-.7-.4-1.2-.6l-7.2-2.5h0l-208.2-71.2c-4.6-1.6-9.6-.6-13.3,2.6-8,6.9-5.5,19.8,4.5,23.2l206,70.4h0c0,.1,15.6,5.5,15.6,5.5,1,.4,2.1.6,3.2.6l37.8,1.6c1.8,0,2.8-2.2,1.4-3.4l-22.7-19.6h0Z"/>
          <path class="cls-5" d="M1000,664.9c-2.5,1.9-3.8,4.9-3.4,8l7.7.3c1.8,0,2.8-2.2,1.4-3.4l-5.6-4.8h0Z"/>
          <path class="cls-11" d="M829.2,596.2c-1.4.7-2.7,1.4-3.9,2.4-5.8,4.7-8.5,11.8-7.3,19.2.2,1.3.5,2.5,1,3.6l9.9,3.7c-2.4-2.1-4.2-5-4.7-8.3-.8-5.1,1.1-10.1,5.1-13.3,3.3-2.7,7.7-3.6,11.8-2.8l-11.8-4.5h0Z"/>
        </g>
      </g>
      <g>
        <g class="cls-30">
          <image class="cls-34" width="485" height="310" transform="translate(332.5 498.4)" xlink:href="Hero_desktop2-2.png"/>
        </g>
        <g>
          <path class="cls-6" d="M540.6,493l-90.8,104.3-45.4-26.2c-20.3,11.7-20.4,41-.1,52.8l.3.2,215.2,124.5c7.4,4.3,16.5,4.3,23.9,0l124.4-76.4-227.6-179.2h0Z"/>
          <polygon class="cls-19" points="768.2 624.2 631.8 702.9 404.5 571.1 540.6 493 768.2 624.2"/>
          <path class="cls-13" d="M642.1,745.2c-5.8,3.3-12.9,3.3-18.7,0h0c-12.5-7.2-12.5-25.1,0-32.3l9.1-5.3,135.8-78.3v-5.1l-136.4,78.7-11.1,6.4c-15.2,8.8-15.1,30.7,0,39.5,7.1,4.1,15.7,4,22.8,0l124.5-72.2v-4.3l-126.1,73.1h0Z"/>
          <path class="cls-23" d="M642.1,745.2l121.5-70.4v-42.8l-131.2,75.7-9.1,5.3c-12.4,7.2-12.4,25.2,0,32.3h0c5.8,3.3,12.9,3.3,18.7,0h0Z"/>
          <polygon class="cls-7" points="667.8 731.3 638.9 747.9 638.9 721.8 667.8 705.2 667.8 731.3"/>
          <path class="cls-11" d="M638.9,721.8l28.9-16.7h0c17.9,10.3,28.9,29.4,28.9,50.1h0c0,.1-13.1-7.5-13.1-7.5l-15.8,24.4h0c0-20.8-11-39.9-29-50.2h0s0,0,0,0Z"/>
        </g>
        <g>
          <path class="cls-22" d="M631.8,642.2l-227.3-131.8c-20.3,11.7-20.4,41-.1,52.8l.3.2,215.2,124.5c7.4,4.3,16.5,4.3,23.9,0l124.4-76.4-37.8-26.1-98.6,56.9Z"/>
          <polygon class="cls-22" points="768.2 563.6 631.8 642.2 404.5 510.5 540.6 432.3 768.2 563.6"/>
          <path class="cls-9" d="M642.1,684.6c-5.8,3.3-12.9,3.3-18.7,0h0c-12.5-7.2-12.5-25.1,0-32.3l9.1-5.3,135.8-78.3v-5.1l-136.4,78.7-11.1,6.4c-15.2,8.8-15.1,30.7,0,39.5,7.1,4.1,15.7,4,22.8,0l124.5-72.2v-4.3l-126.1,73.1h0Z"/>
          <path class="cls-23" d="M642.1,684.6l121.5-70.4v-42.8l-131.2,75.7-9.1,5.3c-12.4,7.2-12.4,25.2,0,32.3h0c5.8,3.3,12.9,3.3,18.7,0h0Z"/>
          <polygon class="cls-7" points="682.2 661.3 653.3 677.9 653.3 651.8 682.2 635.1 682.2 661.3"/>
          <path class="cls-21" d="M653.3,651.7l28.9-16.7h0c17.9,10.3,28.9,29.4,28.9,50.1h0c0,.1-13.1-7.5-13.1-7.5l-15.8,24.4h0c0-20.8-11-39.9-29-50.2h0s0,0,0,0Z"/>
          <polygon class="cls-5" points="607.5 471.2 471.2 549.9 428.7 524.9 564.8 446.7 607.5 471.2"/>
          <path class="cls-5" d="M471.2,549.9l-42.5-25c-18.9,10.9-20,37.5-3.8,50.6l42.2,24.4c-16.1-13.1-14.7-39.1,4.1-49.9Z"/>
        </g>
        <g>
          <path class="cls-24" d="M541.2,398.1l-81.4,93.6-40.7-23.5c-18.2,10.5-18.3,36.7-.1,47.3l.3.2,193,111.7c6.6,3.8,14.8,3.8,21.5,0l111.6-68.5-204.1-160.7h0Z"/>
          <polygon class="cls-21" points="745.3 515.8 623 586.4 419.1 468.2 541.2 398.1 745.3 515.8"/>
          <path class="cls-12" d="M632.2,624.3c-5.2,3-11.6,3-16.8,0h0c-11.2-6.4-11.2-22.5,0-29l8.1-4.7,121.8-70.3v-4.6l-122.3,70.5-9.9,5.8c-13.6,7.9-13.6,27.6,0,35.4,6.3,3.6,14.1,3.6,20.4,0l111.7-64.8v-3.9l-113.1,65.5h0Z"/>
          <path class="cls-23" d="M632.2,624.3l109-63.2v-38.4l-117.7,67.9-8.1,4.7c-11.1,6.5-11.1,22.6,0,29h0c5.2,3,11.6,3,16.8,0h0Z"/>
          <polygon class="cls-7" points="658.5 609.1 632.6 624 632.6 600.6 658.5 585.7 658.5 609.1"/>
          <path class="cls-5" d="M632.6,600.6l26-15h0c16,9.3,25.9,26.4,25.9,44.9h0c0,.1-11.8-6.8-11.8-6.8l-14.1,21.9h0c0-18.6-9.9-35.8-26-45h0Z"/>
        </g>
        <g>
          <path class="cls-11" d="M578.9,382.2l-68.7,79.4-34.5-19.8c-15.4,8.9-15.4,31.1,0,40.1h.2c0,.1,163.5,94.3,163.5,94.3,5.6,3.2,12.5,3.2,18.2,0l94.3-58.2-173-135.6h0Z"/>
          <polygon class="cls-22" points="751.8 481.5 648.5 541.4 475.7 441.8 578.9 382.2 751.8 481.5"/>
          <path class="cls-9" d="M656.3,573.5c-4.4,2.5-9.8,2.6-14.2,0h0c-9.5-5.4-9.5-19-.1-24.5l6.9-4,102.9-59.7v-3.9l-103.4,59.9-8.4,4.9c-11.5,6.7-11.4,23.3.1,30,5.4,3.1,12,3,17.3,0l94.4-55v-3.3l-95.6,55.7h0Z"/>
          <path class="cls-23" d="M656.3,573.5l92.1-53.7v-32.5c0,0-99.5,57.7-99.5,57.7l-6.9,4c-9.4,5.5-9.4,19.1.1,24.5h0c4.4,2.5,9.8,2.5,14.2,0h0Z"/>
          <polygon class="cls-7" points="682.8 558.2 664.9 568.6 664.8 540.4 682.8 530 682.8 558.2"/>
          <path class="cls-6" d="M664.8,540.4l18-10.4h0c11.1,6.4,18,18.3,18.1,31.1h0c0,0-8.2-4.7-8.2-4.7l-9.8,15.2h0c0-12.9-6.9-24.8-18.1-31.2h0,0Z"/>
        </g>
      </g>
      <g class="cls-29">
        <image class="cls-34" width="211" height="153" transform="translate(519.5 395.4)" xlink:href="Hero_desktop2-3.png"/>
      </g>
      <g>
        <g>
          <g>
            <path class="cls-5" d="M675.3,334.7l-130.3,130.6c-.7.7-1.6.9-2.4.4l-91.5-6.1c-.8-.4-1.3-1.4-1.4-2.5l-1-10.2c-.1-1.2.3-2.3,1-3l142.1-145.6c.7-.6,1.5-.7,2.2-.4l79.8,22.6c.8.4,1.4,1.4,1.5,2.5l.8,8.7c.1,1.1-.2,2.2-.9,2.9h0Z"/>
            <path class="cls-21" d="M674.2,323.2l-130.3,130.6c-.7.7-1.6.9-2.4.4l-91.6-5.9c-1.3-.7-1.5-3-.4-4.1l141.2-157.2c.7-.7,1.6-.9,2.4-.4l80.9,34c.8.4,1,1.9.2,2.6h0Z"/>
          </g>
          <g>
            <g>
              <path class="cls-5" d="M815.3,368.9l-131.7,132.2c-.7.7-1.7,1-2.7.7l-133.4-36.9c-.9-.2-1.7-1-1.9-1.9l-2.1-8.7c-.3-1,0-1.9.8-2.6l133.1-121.4c.7-.6,1.6-.9,2.5-.6l132.2,27.4c1,.2,1.8,1,2,2l2,7.4c.2.9,0,2-.7,2.6h0Z"/>
              <path class="cls-21" d="M812.7,359.1l-131.8,132.2c-.7.7-1.7,1-2.7.7l-133.5-36.7c-1.6-.4-2.1-2.4-.9-3.5l130.8-131.2c.7-.7,1.7-1,2.7-.7l134.8,37c1,.3,1.3,1.5.6,2.2h0Z"/>
            </g>
            <g>
              <path class="cls-10" d="M456.2,368.7c47.8-36,97.2-80.4,97.2-80.4l114.9,44.5-123.8,117c-73.8-17.5-31.5-65.4-88.4-81.2h0Z"/>
              <path class="cls-18" d="M544.6,449.9s-39.2-9-45-57.6c-3.2-26.6-25.9-41.5-38.1-38l139.4-99.3s18.4-13.6,28.2,22.7c13.8,51.3,39.3,55.1,39.3,55.1l-123.8,117h0Z"/>
              <path class="cls-7" d="M544.6,449.9s-33.9-12.4-36-63.8c-1-23.4-19.8-52.7-49.5-43.7l143.4-108.6s29.2.8,35.8,37.8c10,56.2,30.1,61.3,30.1,61.3l-123.8,117h0Z"/>
              <g>
                <path class="cls-18" d="M554.2,352.3c-2-20-11.3-38.7-23.1-46.7-2.8-1.9-5.7-3.1-8.6-3.7l-3.5,2.6c4.3.2,8.1,1.9,11.1,3.9,11.2,7.6,20.1,25.5,22,44.6,3.2,31.3,16,48.5,25.5,57.2l2-1.9c-9.3-8.1-22.3-24.8-25.5-56h0Z"/>
                <path class="cls-18" d="M539.3,363.5c-2-20-11.3-38.7-23.1-46.7-2.8-1.9-5.6-3-8.5-3.7l-3.5,2.6c4.3.2,8,1.9,10.9,3.9,11.2,7.6,20.1,25.5,22.1,44.6,3.4,33,17.4,50.4,27.1,58.6l2-1.9c-9.3-7.5-23.8-24.3-27.1-57.3h0Z"/>
                <path class="cls-18" d="M553.3,433.3c-9.2-6.8-25.2-23.5-28.8-58.6-2-20-11.3-38.7-23.1-46.7-2.8-1.9-5.5-3-8.4-3.6l-3.4,2.6c4.2.2,7.9,1.9,10.8,3.9,11.2,7.6,20.1,25.5,22,44.6,3.6,35,19.1,52.3,28.8,59.9l2.1-2h0Z"/>
                <path class="cls-18" d="M658.4,333.9h0c0,0-.1-.2-.4-.4,0,.1.2.3.3.4Z"/>
                <path class="cls-18" d="M613.6,307.7c-2-20-11.3-38.7-23.1-46.7-3-2-6-3.2-9-3.8l-3.6,2.7c4.5,0,8.5,1.8,11.5,3.9,11.2,7.6,20.1,25.5,22,44.6,2.6,25.2,11.4,41.3,19.7,51.1l1.9-1.8c-8.2-9.4-17-25.1-19.6-50h0Z"/>
                <path class="cls-18" d="M569,341.1c-2-20-11.3-38.7-23.1-46.7-2.8-1.9-5.8-3.1-8.7-3.7l-3.5,2.6c4.4.2,8.2,1.9,11.2,3.9,11.2,7.6,20.1,25.5,22,44.6,3,29.6,14.7,46.6,24,55.7l2-1.9c-9.1-8.6-20.9-25.1-24-54.6h0Z"/>
                <path class="cls-18" d="M628.5,296.5c-2-20-11.3-38.7-23.1-46.7-3-2-6-3.2-9-3.8l-3.6,2.7c4.6,0,8.6,1.8,11.7,3.9,11.2,7.6,20.1,25.5,22,44.6,2.5,23.9,10.5,39.6,18.4,49.5l1.9-1.8c-7.8-9.6-15.8-24.8-18.3-48.4h0Z"/>
                <path class="cls-18" d="M598.8,318.8c-2-20-11.3-38.7-23.1-46.7-2.9-2-5.9-3.2-8.9-3.7l-3.5,2.7c4.5.1,8.4,1.9,11.4,3.9,11.2,7.6,20.1,25.5,22,44.6,2.7,26.6,12.4,43,21.1,52.7l1.9-1.8c-8.6-9.2-18.3-25.2-21-51.6h0Z"/>
                <path class="cls-18" d="M583.9,330c-2-20-11.3-38.7-23.1-46.7-2.9-2-5.8-3.1-8.8-3.7l-3.5,2.7c4.4.1,8.3,1.9,11.3,3.9,11.2,7.6,20.1,25.5,22,44.6,2.9,28.1,13.5,44.8,22.5,54.2l1.9-1.8c-8.9-8.9-19.6-25.2-22.5-53.1h0Z"/>
              </g>
            </g>
            <g>
              <polygon class="cls-7" points="545.4 449.1 667.5 326.5 793.9 360 671.6 482.7 545.4 449.1"/>
              <path class="cls-10" d="M545.4,449.1l25.4-25.2-5.4-5.4-14.5,13c-4.8,4.8-6.8,9.4-5.5,17.6Z"/>
              <path class="cls-23" d="M676.8,471.3l117.7-117.8s-46.5,2.1-74.9-30.8c-23.5-27.2-52.2,3.9-52.2,3.9l-116.6,104.9s10.7-11,28.1-2.9c24.7,11.4,31.5,49.2,97.8,42.7h0Z"/>
              <g>
                <path class="cls-7" d="M558.6,424.7c-.1.1-.2.2-.2.2l.2-.2h0,0Z"/>
                <path class="cls-7" d="M634,408.7c-5-4-10.1-8.2-15.4-11.9-9.3-6.5-17.8-6.2-24.3-4.1l-6.7,6.1c5.5-3.9,16.7-9,29.7,0,5.3,3.7,10.4,7.8,15.3,11.8,17.3,14,35.1,28.4,66.6,28.2l2.5-2.5c-32.2,1-50.2-13.5-67.6-27.6h0Z"/>
                <path class="cls-7" d="M684.7,453.2c-35.7,1.5-51.8-12.8-67.4-26.7-6.2-5.5-12-10.7-18.9-14.7-8.7-5-16.2-4.8-22-3.1l-6.4,5.8c4.6-3.2,14.5-7.8,27.1-.5,6.7,3.9,12.4,9,18.5,14.4,14.9,13.2,31.6,28.1,66.5,27.4l2.6-2.6h0Z"/>
                <path class="cls-7" d="M679.1,351.5c-6.3-6.2-13.3-9.3-20.9-9.1-3.7,0-7.3.9-10.4,2.2l-8.4,7.6c4.5-3.3,11.3-7.1,18.9-7.2,6.9-.1,13.3,2.7,19.1,8.4,24.2,23.9,53.6,33.2,72.7,34.6l2.3-2.4c-18.5-.7-48.6-9.6-73.3-34h0Z"/>
                <path class="cls-7" d="M641.5,383.9l-2.8-2.2c-9.9-7.9-19.5-7.6-26.7-5l-7.5,6.8c1.9-1.4,4.3-2.9,7.2-4,8.9-3.6,17.5-2.2,25.5,4.2l2.8,2.2c22.8,18.3,44.6,35.6,76,36l2.5-2.5c-32,.5-53.9-17-76.9-35.5h0Z"/>
                <path class="cls-7" d="M699.2,336.4c-6.4-6.9-13.7-10.4-21.7-10.4-4.3,0-8.4,1-12,2.5l-8.7,7.8c5-3.7,12.5-7.8,20.8-7.9,7.2,0,13.9,3.2,19.8,9.6,22.5,24.2,53.4,31.2,69.7,32.7l2.3-2.3c-15.1-1-47.1-7.3-70.2-32.1h0Z"/>
                <path class="cls-7" d="M658.9,366.6c-10.5-9.4-21-8.9-29.1-5.9l-7.8,7c2.1-1.5,4.7-3.1,7.8-4.4,9.9-4.1,19.2-2.4,27.5,5.1,25.7,23.1,51.7,35.5,75.7,36.5l2.5-2.5c-24.1-.2-50.3-12.4-76.5-35.9h0Z"/>
              </g>
            </g>
          </g>
        </g>
        <g class="cls-29">
          <image class="cls-34" width="209" height="156" transform="translate(516.5 309.4)" xlink:href="Hero_desktop2-4.png"/>
        </g>
      </g>
      <g>
        <path class="cls-21" d="M622.7,118l-144.5,50.2,29.1,83.7c2.5,7.2,8.6,12.5,16.1,13.9l53.9,10.3c12.9,2.5,26.1-2.1,34.7-12l35.9-41.5c5-5.8,6.5-13.7,4-20.9l-29.1-83.7h0Z"/>
        <path class="cls-20" d="M478.1,168.2l26.3,75.8,69,13.2c10.8,2.1,21.8-1.8,29-10.1l46.2-53.4-26.3-75.6-144.3,50.1h0Z"/>
        <polygon class="cls-5" points="537.7 106.6 682.1 123.3 685.4 132.7 586.5 247.1 438 218.6 434.7 209.2 537.7 106.6"/>
        <polygon class="cls-21" points="533.6 94.9 682.1 123.3 583.2 237.7 434.7 209.2 533.6 94.9"/>
        <g>
          <polyline class="cls-4" points="557.6 168 615.2 198.6 616 281.8"/>
          <g>
            <g>
              <line class="cls-4" x1="613" y1="306.9" x2="612.8" y2="281.1"/>
              <line class="cls-4" x1="619.6" y1="306.8" x2="619.3" y2="281"/>
              <line class="cls-4" x1="615.9" y1="272.2" x2="616.3" y2="309.4"/>
              <polyline class="cls-4" points="609.5 304.5 609.3 281.1 622.7 281 622.9 303.9"/>
            </g>
            <line class="cls-1" x1="615.8" y1="260.3" x2="616" y2="276.1"/>
          </g>
        </g>
        <g>
          <ellipse class="cls-5" cx="559.3" cy="168.6" rx="7.6" ry="5.6" transform="translate(-24.4 192.8) rotate(-19.1)"/>
          <ellipse class="cls-15" cx="558.4" cy="166.2" rx="7.6" ry="5.6" transform="translate(-23.6 192.4) rotate(-19.1)"/>
        </g>
      </g>
      <g>
        <g class="cls-34">
          <path class="cls-27" d="M720,183.7c-7.1-9.8-3.1-18.7,8.8-19.9,11.9-1.3,27.3,5.6,34.3,15.4,7,9.8,3.1,18.7-8.8,19.9-11.9,1.3-27.3-5.6-34.3-15.4"/>
        </g>
        <g>
          <g class="cls-34">
            <path class="cls-10" d="M751,105.4c-9.1-12.6-4-24.1,11.3-25.7,15.3-1.6,35.1,7.2,44.2,19.8,9.1,12.6,4,24.1-11.3,25.7-15.4,1.6-35.2-7.3-44.3-19.8"/>
          </g>
          <g>
            <path class="cls-7" d="M708.7,318.2c-15.4,1.6-35.2-7.3-44.3-19.8-4.9-6.7-5.6-13.1-3-17.9l47.4-83.9,38.5-107.7c-1.9,4.6-.8,10.5,3.6,16.6,9.1,12.6,28.9,21.5,44.3,19.8,6-.6,10.4-2.8,13-5.9l-43,69.8c-12.1,19.7-21.2,41-27,63.4l-14,54c-1,6.1-6.5,10.6-15.6,11.6h0Z"/>
            <path class="cls-26" d="M747.7,88.1h0s0,0,0,0c0,0,0,0,0,0Z"/>
          </g>
          <g class="cls-31">
            <g>
              <g class="cls-34">
                <path class="cls-14" d="M756.8,103.1c-7.8-10.8-3.4-20.6,9.7-22,13.1-1.4,30.1,6.2,37.8,17,7.8,10.8,3.4,20.6-9.7,22-13.2,1.4-30.1-6.2-37.9-17"/>
              </g>
              <g class="cls-34">
                <path class="cls-10" d="M762.7,99.1c-6.7-9.2-2.9-17.6,8.3-18.8,11.2-1.2,25.7,5.3,32.3,14.5,6.6,9.2,2.9,17.6-8.3,18.8-11.2,1.2-25.7-5.3-32.3-14.5"/>
              </g>
              <path class="cls-18" d="M768.4,104.5s5.7-11.4,7.3-18.9c12.8-.4,22.2,4.2,27.7,11.9,5.5,7.6,2.4,14.6-6.8,15.6-9,.9-20.5-1.5-28.1-8.5Z"/>
              <path class="cls-7" d="M732,254.6c-11.3,1.2-25.9-5.4-32.6-14.6-3.6-4.9-4.2-9.7-2.2-13.2l34.9-61.8,27.9-78c-1.4,3.4-.2,6.4,3.1,10.9,6.7,9.2,21.3,15.8,32.6,14.6,4.4-.5,7.7-2.1,9.6-4.3l-45.1,73.2-16.7,64.6c-.7,4.5-4.8,7.8-11.5,8.6Z"/>
              <path class="cls-18" d="M720.8,285.3c-13.3,1.4-30.3-6.3-38.2-17.1-4.2-5.8-4.9-11.3-2.6-15.4l40.9-72.4,32.7-91.6c-1.3,2.8-.3,7.7,3.5,13,7.8,10.8,24.9,18.5,38.2,17.1,5.2-.5,9-2.4,11.2-5.1l-52.8,85.7-19.5,75.7c-.9,5.3-5.6,9.2-13.5,10h0Z"/>
            </g>
          </g>
          <path class="cls-25" d="M791.3,117.6l-44.8,83.1c-5.5,10.3-10.3,20.9-14.4,31.9l-32.5,88.6c-29.7,4.7-45.3-30.6-38.2-40.8l42.8-75.7c3.1-5.4,5.7-11.1,7.8-17l35.3-98.9c-1.9,4.6.2,11,7.5,17.6,8.1,7.3,25.9,15.9,36.5,11.2h0Z"/>
        </g>
        <path class="cls-8" d="M703.3,220.6c-2.1-2.9-3.2-5.7-3.4-8.2l4.3-7.6c3.1-5.4,5.7-11.1,7.8-17l6.8-18.9c-.5,3.2.5,6.9,3.3,10.8,5.8,8,17,14,27.5,15.3l-3.2,5.9c-5.5,10.3-10.3,20.9-14.4,31.9l-1,2.9c-10.4-.9-22-6.9-27.7-14.9h0Z"/>
        <path class="cls-16" d="M734.5,239.7c-11.6,1.2-26.5-5.5-33.3-14.9-3.4-4.7-4.2-9.2-2.7-12.7h0l18.2-39.7c-.7,3.3.3,7.3,3.3,11.4,7,9.8,22.4,16.6,34.3,15.4,5.7-.6,9.5-2.9,11.2-6.2l-19.7,39.7c-.2.6-.5,1.3-.9,1.8h0s0,0,0,0c-1.9,2.8-5.4,4.7-10.4,5.2h0Z"/>
      </g>
      <g>
        <g>
          <polygon class="cls-23" points="556.3 508.3 558.8 497.2 550.1 494 544.4 505 556.3 508.3"/>
          <path class="cls-23" d="M560.3,484.5c3.4,3.2,8.4,7.2,5.2,10.6-3.2,3.4-13.4,5-16.8,1.8-3.4-3.2-3.6-8.6-.4-12,3.2-3.4,8.6-3.6,12-.4Z"/>
          <path class="cls-5" d="M560.1,494s.2-4.2-3.5-7.9c0,0,4.1-4.8,0-9,0,0-5.8-.2-8.3,4.2-2.5,4.4-6.5,10.1-3.8,12.2,2.7,2.1,3.3,2.3,3.3,5.1l5.1,1.8s3.9-1.4,7.3-6.4h0Z"/>
          <ellipse class="cls-23" cx="558.5" cy="492.4" rx="2.4" ry="3.1" transform="translate(-55.8 913.2) rotate(-75.8)"/>
        </g>
        <path class="cls-6" d="M562.6,506.9s34-7.1,38.2-34.9c8.5,49.2-36.8,55.4-36.8,55.4l-1.3-20.6h0Z"/>
        <path class="cls-6" d="M542.2,502.2s-16.9,21-22.5,66.7l45,4.7s-6.1-22.2,5.8-58.6l-7.9-8-20.5-4.7Z"/>
        <path class="cls-6" d="M542.2,502.2s-19.6-2.4-40.8,8.3c-11.9,6-7.9,20.5,11,19,0,0-14-8.4,26.1-12.5l3.6-14.8h0Z"/>
        <path class="cls-5" d="M547.7,574.8s-15.7,51.2-41.2,73.6c0,0,9.5-19.7,14.3-43.3,3.8-18.5-7.1-27.7,2.1-55.1l24.8,24.8Z"/>
        <polygon class="cls-5" points="509.8 640.8 516.8 649.7 524.7 647.7 515.7 652.9 504.9 647.8 509.8 640.8"/>
        <path class="cls-5" d="M563.1,555.5s37.6,12.9,43,22.2c5.3,9.3-20.1,36.1-20.1,36.1,0,0,20.2-36.8-42.4-34.5l-20.8-29.3,40.3,5.5h0Z"/>
        <polygon class="cls-5" points="588.3 607.3 591.8 618.4 596.9 621.4 588.9 621.4 583.1 613.7 588.3 607.3"/>
        <path class="cls-23" d="M604.2,469.3c0-.1-.2,0-.2,0v1.8l-1,1.7v-2.3l-.8-1.4c-.1-.2-.4,0-.3.1v1.3c.1,0-.5,1.9-.5,1.9l-.4-2.8-1.2-1.6c-.2-.2-.6,0-.5.2l.4,1.7-.5,2.1-.8-3.4c0-.3-.5-.3-.5,0l-.3,1.9v4.5l-1.1-.6.6-2.2c0-.3-.3-.5-.5-.3l-1.4,2.9,3.6,5.5,3,.3,2-3.8,1.1-5.2-.7-2.3h0Z"/>
        <path class="cls-23" d="M520.3,521.1c.1,0,.1.1,0,.2l-1.7.5-1.3,1.4,2.2-.7,1.5.4c.2,0,.2.4,0,.4l-1.3.3-1.6,1.2,2.8-.5,1.9.6c.3.1.2.5,0,.5h-1.8c0,.1-1.9,1.3-1.9,1.3l3.5-.3c.3,0,.4.4.1.5l-1.7.8-4.3,1.3.9.9,1.9-1.2c.2-.1.5.1.4.4l-2.4,2.2-6.3-1.9-1.2-2.8,3-3.1,4.7-2.6h2.4s0,0,0,0Z"/>
      </g>
      <g>
        <g class="cls-30">
          <image class="cls-34" width="434" height="268" transform="translate(39.5 591.4)" xlink:href="Hero_desktop2-5.png"/>
        </g>
        <g>
          <g>
            <path class="cls-17" d="M256.4,604.6v-170.9c0,0-4.3-.1-4.3-.1l-30.9-18.5-100.9,56.5c-4.1,2.3-5.8,6.5-5.4,10.4h-.1v176.3h0c0,3.5,1.7,7,5.2,9.1l6.5,3.9c7.1,4.3,16,4.4,23.2.4l101.3-56.6c4.1-2.3,5.9-6.5,5.4-10.5h0Z"/>
            <path class="cls-5" d="M141.9,459.4l-21.7,12.1c-4.1,2.3-5.8,6.5-5.4,10.4h-.1v176.4h0c0,3.5,1.7,7,5.2,9.1l6.5,3.9c4.7,2.8,10.2,3.8,15.5,3,0,0,0-215,0-215Z"/>
            <path class="cls-21" d="M255.8,432.9l-1.2-.8-2.4,1.4-27.8-16.8,2.4,1.5v-2.9s-.5-.3-.5-.3c-1.6-.9-3.5-1-5.1,0l-100.9,56.5c-7.3,4.1-7.4,14.2-.3,18.5l6.5,3.9c7.1,4.3,16,4.4,23.2.4l106.1-59.4c.8-.4.8-1.5,0-2h0Z"/>
            <path class="cls-23" d="M252.1,433.5l-102.2,57.2c-6.4,3.6-14.3,3.5-20.5-.3l-7.4-4.5c-4.6-2.8-4.5-9.3.2-11.9l102.2-57.2,27.8,16.8h0Z"/>
            <path class="cls-17" d="M226.8,415.5h0s-104.6,58.5-104.6,58.5c-3.1,1.8-4.2,5.2-3.2,8.2.5-1.5,1.6-2.9,3.2-3.8l104.7-58.6v-4.2Z"/>
          </g>
          <g>
            <path class="cls-21" d="M239.4,661.6v-156.1c0,0-3.9-.1-3.9-.1l-28.2-16.9-92.2,51.6c-3.7,2.1-5.3,5.9-4.9,9.5h-.1v161.1h0c0,3.2,1.6,6.4,4.8,8.3l5.9,3.6c6.5,3.9,14.6,4,21.2.3l92.5-51.8c3.7-2.1,5.3-5.9,4.9-9.6h0s0,0,0,0Z"/>
            <path class="cls-24" d="M134.8,529l-19.8,11.1c-3.7,2.1-5.3,5.9-4.9,9.5h-.1v161.1h0c0,3.2,1.6,6.4,4.8,8.3l5.9,3.6c4.3,2.6,9.3,3.5,14.2,2.7v-196.4h0Z"/>
            <path class="cls-22" d="M239.3,630.4c.4,3.7-1.2,7.5-4.9,9.6l-92.5,51.8c-2.2,1.2-4.6,2-7.1,2.4h0c-2.3.4-4.7.3-7.1,0-.2,0-.4,0-.5-.1-.9-.2-1.8-.5-2.7-.8-.3,0-.5-.2-.8-.3-1.1-.4-2.1-.9-3.1-1.5l-5.9-3.6c-3.2-1.9-4.8-5.1-4.8-8.3h0v15.2h0c0,3.2,1.6,6.4,4.8,8.3l5.9,3.6c1,.6,2,1.1,3.1,1.5.3,0,.5.2.8.3.9.3,1.8.6,2.7.8.2,0,.4,0,.5.1,2.3.4,4.7.5,7.1,0h0c2.4-.4,4.8-1.2,7.1-2.4l92.5-51.8c3.7-2.1,5.3-5.9,4.9-9.6h0v-15.2h0s0,0,0,0Z"/>
            <path class="cls-12" d="M238.8,504.8l-1.1-.7-2.2,1.3-25.4-15.3,2.2,1.3v-2.6s-.5-.3-.5-.3c-1.4-.9-3.2-.9-4.6,0l-92.2,51.6c-6.6,3.7-6.8,13-.3,16.9l5.9,3.6c6.5,3.9,14.6,4,21.2.3l96.9-54.3c.7-.4.7-1.4,0-1.8h0Z"/>
            <path class="cls-23" d="M235.4,505.3l-93.4,52.3c-5.8,3.3-13,3.2-18.8-.3l-6.8-4.1c-4.2-2.5-4.1-8.5.2-10.9l93.4-52.3,25.4,15.3h0Z"/>
            <path class="cls-21" d="M212.3,488.8h0s-95.6,53.4-95.6,53.4c-2.8,1.6-3.8,4.8-2.9,7.5.5-1.4,1.4-2.7,2.9-3.5l95.6-53.5v-3.9h0Z"/>
          </g>
          <g>
            <path class="cls-19" d="M328,654.6v-190.8c0,0-4.8-.1-4.8-.1l-34.5-20.7-112.7,63.1c-4.5,2.5-6.5,7.2-6,11.7h-.2v196.9h0c0,3.9,1.9,7.8,5.8,10.2l7.2,4.4c7.9,4.8,17.9,4.9,25.9.4l113.1-63.2c4.6-2.6,6.5-7.3,6-11.8h0Z"/>
            <path class="cls-6" d="M200.1,492.5l-24.2,13.5c-4.5,2.5-6.5,7.2-6,11.7h-.2v196.9h0c0,3.9,1.9,7.8,5.8,10.2l7.2,4.4c5.2,3.2,11.4,4.3,17.3,3.3v-240h0Z"/>
            <path class="cls-23" d="M327.9,532.3h0c.5,4.5-1.5,9.2-6,11.8l-113.1,63.2c-5.3,3-11.4,3.9-17.3,2.8-.2,0-.4,0-.7-.1-1.1-.2-2.2-.5-3.3-.9-.3-.1-.6-.2-1-.3-1.3-.5-2.5-1.1-3.7-1.8l-7.2-4.4c-3.9-2.3-5.8-6.3-5.8-10.2h0v31.7h0c0,3.9,1.9,7.8,5.8,10.2l7.2,4.4c1.2.7,2.5,1.3,3.7,1.8.3.1.6.2,1,.3,1.1.4,2.2.7,3.3.9.2,0,.4,0,.7.1,5.8,1.1,12,.2,17.3-2.8l113.1-63.2c4.6-2.6,6.5-7.3,6-11.8h0v-31.7h0Z"/>
            <path class="cls-13" d="M327.3,462.9l-1.4-.8-2.7,1.5-31-18.7,2.7,1.6v-3.2s-.6-.4-.6-.4c-1.7-1-3.9-1.1-5.7,0l-112.7,63.1c-8.1,4.5-8.3,15.9-.4,20.7l7.2,4.4c7.9,4.8,17.9,4.9,25.9.4l118.4-66.3c.9-.5.9-1.7,0-2.2h0Z"/>
            <path class="cls-23" d="M323.1,463.6l-114.1,63.9c-7.1,4-15.9,3.9-22.9-.4l-8.3-5c-5.1-3.1-5-10.4.2-13.3l114.2-63.9,31,18.7h0Z"/>
            <path class="cls-19" d="M294.9,443.5h0s-116.8,65.3-116.8,65.3c-3.5,2-4.6,5.8-3.6,9.1.6-1.7,1.7-3.3,3.6-4.3l116.9-65.5v-4.7Z"/>
          </g>
          <g>
            <path class="cls-22" d="M342.3,690.5v-156.1s-3.9-.1-3.9-.1l-28.2-16.9-92.2,51.6c-3.7,2.1-5.3,5.9-4.9,9.5h-.1v161.1h0c0,3.2,1.6,6.4,4.8,8.3l5.9,3.6c6.5,3.9,14.6,4,21.2.3l92.5-51.8c3.7-2.1,5.3-5.9,4.9-9.6h0s0,0,0,0Z"/>
            <path class="cls-22" d="M237.8,557.9l-19.8,11.1c-3.7,2.1-5.3,5.9-4.9,9.5h-.1v161.1h0c0,3.2,1.6,6.4,4.8,8.3l5.9,3.6c4.3,2.6,9.3,3.5,14.2,2.7v-196.4h0Z"/>
            <path class="cls-9" d="M341.8,533.7l-1.1-.7-2.2,1.3-25.4-15.3,2.2,1.3v-2.6s-.5-.3-.5-.3c-1.4-.9-3.2-.9-4.6,0l-92.2,51.6c-6.6,3.7-6.8,13-.3,16.9l5.9,3.6c6.5,3.9,14.6,4,21.2.3l96.9-54.3c.7-.4.7-1.4,0-1.8h0Z"/>
            <path class="cls-23" d="M338.4,534.3l-93.4,52.3c-5.8,3.3-13,3.2-18.8-.3l-6.8-4.1c-4.2-2.5-4.1-8.5.2-10.9l93.4-52.3,25.4,15.3h0Z"/>
            <path class="cls-22" d="M315.3,517.8h0s-95.6,53.5-95.6,53.5c-2.9,1.6-3.8,4.8-2.9,7.5.5-1.4,1.4-2.7,2.9-3.5l95.7-53.5v-3.9Z"/>
            <g>
              <path class="cls-6" d="M342.3,542.8l-98.4,55.2c-6.1,3.4-13.5,3.2-19.4-.3l-5.9-3.6c-2.1-1.3-4.9-3.7-5.7-6.2v5.5c.9,1.5,2.2,2.8,3.9,3.8l5.9,3.6c3.6,2.2,7.7,3.3,11.8,3.3s7.7-1,11.2-2.9l96.6-54.3v-4.1h0Z"/>
              <path class="cls-6" d="M342.3,687.7l-98.4,55.2c-6.1,3.4-13.5,3.2-19.4-.3l-5.9-3.6c-2.1-1.3-4.9-3.7-5.7-6.2v5.5c.9,1.5,2.2,2.8,3.9,3.8l5.9,3.6c3.6,2.2,7.7,3.3,11.8,3.3s7.7-1,11.2-2.9l96.6-54.3v-4.1h0Z"/>
            </g>
          </g>
          <g>
            <path class="cls-21" d="M408.3,731.3l-38-155.3h-4.6l-31.2-11.5-85,46.7c-3.8,2.2-4.8,6-3.4,9.6h-.1s39.1,160.2,39.1,160.2h0c.8,3.2,3.4,6.3,7.6,8.2l2.4,1c8.5,3.7,18,3.6,24.8-.3l85-48.9c3.8-2.2,4.8-6.1,3.4-9.7h0Z"/>
            <path class="cls-5" d="M265.7,602l-16.2,9.2c-3.8,2.2-4.8,6-3.4,9.6h-.1s39.1,160.2,39.1,160.2h0c.8,3.2,3.4,6.3,7.6,8.2l2.4,1c5.6,2.5,11.7,3.2,17.1,2.3l-46.5-190.5h0Z"/>
            <path class="cls-12" d="M369.6,575.4l-1.5-.7-2.3,1.3-24.6-9.5-1-3.9-.7-.3c-1.9-.8-2.6-1.3-4.1-.5l-85.9,49.3c-6.8,3.9-4.8,13.1,3.8,16.8l2.4,1c8.5,3.7,18,3.6,24.8-.3l89.5-51.5c.7-.4.5-1.4-.4-1.8Z"/>
            <path class="cls-23" d="M365.8,576l-85.9,49.4c-6,3.4-14.4,3.5-21.9.2l-3.6-1.5c-5.5-2.4-6.8-8.3-2.4-10.8l89.2-46.8,24.6,9.5h0Z"/>
            <path class="cls-21" d="M340.2,562.7h0s-88.1,50.7-88.1,50.7c-2.9,1.7-3.3,4.9-1.6,7.5.2-1.4,1-2.7,2.5-3.6l88.2-50.8-.9-3.8h0Z"/>
            <polygon class="cls-23" points="362.8 642.5 313 671.2 306.9 644.7 356.7 615.9 362.8 642.5"/>
          </g>
          <g>
            <path class="cls-22" d="M424.7,750.3l-27.6-113h-3.3l-26.9-11.7-69,39.3c-2.8,1.6-3.5,4.4-2.5,7h-.1s28.5,116.6,28.5,116.6h0c.6,2.3,2.5,4.6,5.5,5.9l5.7,2.5c6.2,2.7,13.1,2.6,18-.2l69.2-39.4c2.8-1.6,3.5-4.4,2.5-7.1h0s0,0,0,0Z"/>
            <g>
              <path class="cls-6" d="M373.5,630.5l1-.6-1.3-.6c0,.4.2.8.3,1.1Z"/>
              <polygon class="cls-6" points="380.1 631.4 375.5 629.4 374.5 630 380.4 632.5 380.1 631.4"/>
              <polygon class="cls-19" points="419.3 759 389 635.3 387.2 634.5 385 634.5 380.4 632.5 412.3 763 419.3 759"/>
            </g>
            <path class="cls-22" d="M312.7,656.6l-14.8,8.4c-2.8,1.6-3.5,4.4-2.5,7h-.1s28.5,116.6,28.5,116.6h0c.6,2.3,2.5,4.6,5.5,5.9l5.7,2.5c4.1,1.8,8.5,2.3,12.5,1.7l-34.7-142.1h0Z"/>
            <path class="cls-9" d="M396.5,636.8l-1.1-.5-1.7,1-24.2-10.5,2.1.9-.4-1.9-.5-.2c-1.4-.6-2.9-.6-3.9,0l-69,39.3c-5,2.8-3.5,9.5,2.7,12.2l5.7,2.5c6.2,2.7,13.1,2.6,18-.2l72.5-41.4c.5-.3.4-1-.3-1.3h0Z"/>
            <path class="cls-23" d="M393.7,637.3l-69.9,39.8c-4.4,2.5-10.5,2.6-15.9.2l-6.5-2.8c-4-1.7-5-6.1-1.8-7.9l69.9-39.8,24.2,10.5h0Z"/>
            <path class="cls-22" d="M371.2,625.9h0s-71.5,40.7-71.5,40.7c-2.1,1.2-2.4,3.5-1.1,5.5.1-1,.7-2,1.8-2.6l71.5-40.8-.7-2.8h0Z"/>
            <polygon class="cls-6" points="383.7 645.6 390.6 641.7 360.8 628.7 353.9 632.7 383.7 645.6"/>
          </g>
        </g>
      </g>
      <g class="cls-32">
        <g class="cls-33">
          <g>
            <line class="cls-3" x1="1315.5" y1="715.4" x2="2472.4" y2="47.9"/>
            <line class="cls-3" x1="1358.9" y1="741" x2="2515.8" y2="73.5"/>
            <line class="cls-3" x1="1402.3" y1="766.6" x2="2559.2" y2="99.1"/>
            <line class="cls-3" x1="1445.7" y1="792.1" x2="2602.6" y2="124.6"/>
            <line class="cls-3" x1="1489.1" y1="817.7" x2="2646" y2="150.2"/>
            <line class="cls-3" x1="1532.5" y1="843.3" x2="2689.4" y2="175.8"/>
            <line class="cls-3" x1="1575.9" y1="868.8" x2="2732.8" y2="201.3"/>
          </g>
          <g>
            <line class="cls-3" x1="2732.8" y1="1201.2" x2="1575.9" y2="533.7"/>
            <line class="cls-3" x1="2689.4" y1="1226.8" x2="1532.5" y2="559.3"/>
            <line class="cls-3" x1="2646" y1="1252.3" x2="1489.1" y2="584.8"/>
            <line class="cls-3" x1="2602.6" y1="1277.9" x2="1445.7" y2="610.4"/>
            <line class="cls-3" x1="2559.2" y1="1303.5" x2="1402.3" y2="636"/>
            <line class="cls-3" x1="2515.8" y1="1329" x2="1358.9" y2="661.5"/>
            <line class="cls-3" x1="2472.4" y1="1354.6" x2="1315.5" y2="687.1"/>
          </g>
        </g>
      </g>
    </g>
  </g>
</svg>